<svg width="30" height="30" viewBox="0 0 30 30" fill="none" xmlns="http://www.w3.org/2000/svg">
<path d="M15.4037 11.7048C15.678 15.1694 18.5848 17.9047 22.1186 17.9047C25.6525 17.9047 28.5593 15.1694 28.8336 11.7048H15.4037Z" fill="#009FE3"/>
<path d="M1.16638 7.36421L3.28947 9.02353V5.70483L1.16638 7.36421Z" fill="#009FE3"/>
<path d="M22.1186 19.6625C17.6153 19.6625 13.9197 16.1395 13.642 11.7049H13.6245V11.1684V10.826V4.28854C13.6245 1.92387 11.7006 0 9.33596 0C6.97129 0 5.04736 1.92387 5.04736 4.28854V11.9038C5.04736 16.789 8.00582 20.9957 12.2249 22.8281V30H13.9827V23.4329C14.932 23.6774 15.9266 23.8076 16.9511 23.8076C17.3059 23.8076 17.657 23.7917 18.0039 23.7611V30H19.7617V23.4721C22.9052 22.7081 25.5644 20.6927 27.1802 17.9855C25.7656 19.0386 24.0136 19.6625 22.1186 19.6625ZM9.33596 4.78154C8.85057 4.78154 8.45705 4.38803 8.45705 3.90264C8.45705 3.41725 8.85057 3.02373 9.33596 3.02373C9.82135 3.02373 10.2149 3.41725 10.2149 3.90264C10.2149 4.38803 9.82135 4.78154 9.33596 4.78154Z" fill="#009FE3"/>
</svg>
