<svg width="13" height="15" viewBox="0 0 13 15" fill="none" xmlns="http://www.w3.org/2000/svg">
<path d="M3.12083 7.15011C2.23228 5.36926 1.53183 3.9634 3.07755 1.664C3.40833 1.17107 3.27213 0.506769 2.77708 0.178886C2.2863 -0.146887 1.61178 -0.0160952 1.27888 0.476733C-0.960816 3.80267 0.228198 6.18575 1.18373 8.0995C2.07663 9.8911 2.72297 11.1855 1.27888 13.3349C0.945984 13.8278 1.08218 14.4921 1.57723 14.82C1.76095 14.9421 1.97073 15 2.17827 15C2.52637 15 2.86788 14.8328 3.07543 14.5221C5.21358 11.3462 4.05477 9.01886 3.12083 7.15011Z" fill="#009FE3"/>
<path d="M7.40653 7.15011C6.51799 5.36926 5.81753 3.9634 7.36326 1.664C7.69403 1.17107 7.55783 0.506769 7.06279 0.178886C6.572 -0.146887 5.89749 -0.0160952 5.56459 0.476733C3.32489 3.80267 4.5139 6.18575 5.46943 8.0995C6.36233 9.8911 7.00867 11.1855 5.56459 13.3349C5.23169 13.8278 5.36789 14.4921 5.86293 14.82C6.04666 14.9421 6.25643 15 6.46397 15C6.81208 15 7.15359 14.8328 7.36113 14.5221C9.49929 11.3462 8.34047 9.01886 7.40653 7.15011Z" fill="#009FE3"/>
<path d="M11.6922 7.15011C10.8037 5.36926 10.1032 3.9634 11.649 1.664C11.9797 1.17107 11.8435 0.506769 11.3485 0.178886C10.8577 -0.146887 10.1832 -0.0160952 9.85029 0.476733C7.6106 3.80267 8.79961 6.18575 9.75514 8.0995C10.648 9.8911 11.2944 11.1855 9.85029 13.3349C9.51739 13.8278 9.65359 14.4921 10.1486 14.82C10.3324 14.9421 10.5421 15 10.7497 15C11.0978 15 11.4393 14.8328 11.6468 14.5221C13.785 11.3462 12.6262 9.01886 11.6922 7.15011Z" fill="#009FE3"/>
</svg>
