<svg width="48" height="48" viewBox="0 0 48 48" fill="none" xmlns="http://www.w3.org/2000/svg">
<path d="M46.7419 24.0062C46.7419 36.846 36.4442 47.2605 23.7471 47.2605C11.05 47.2605 0.752197 36.846 0.752197 24.0062C0.752197 11.1664 11.037 0.751953 23.7471 0.751953C36.4572 0.751953 46.7419 11.1535 46.7419 24.0062Z" fill="white"/>
<path d="M23.7471 48C10.6479 48 0 37.2353 0 24.0065C0 10.7647 10.6479 0 23.7471 0C36.8463 0 47.4942 10.7647 47.4942 24.0065C47.4812 37.2353 36.8333 48 23.7471 48ZM23.7471 1.49149C11.478 1.49149 1.50446 11.5947 1.50446 23.9935C1.50446 36.4053 11.491 46.4955 23.7471 46.4955C36.0162 46.4955 45.9898 36.3923 45.9898 23.9935C45.9898 11.5947 36.0033 1.49149 23.7471 1.49149Z" fill="#021C27"/>
<path d="M23.857 32.0475L23.5977 31.9697V8.49496L23.883 8.45605L28.2926 24.7846L28.2796 24.9013L23.857 32.0475ZM23.883 9.57143V31.4639L27.9943 24.7976L23.883 9.57143Z" fill="#021C27"/>
<path d="M23.7402 31.9825V8.50781L19.3306 24.8364L23.7402 31.9825Z" fill="#021C27"/>
<path d="M23.6235 32.0475L19.2139 24.9013L19.2009 24.7846L23.6105 8.45605L23.8959 8.49496V31.9697L23.6235 32.0475ZM19.4863 24.8106L23.5976 31.4769V9.57143L19.4863 24.8106Z" fill="#021C27"/>
<path d="M23.7402 31.9823L39.6927 20.4395L28.1499 24.8361L23.7402 31.9823Z" fill="#021C27"/>
<path d="M23.831 32.0861L23.6235 31.8916L28.0332 24.7454L28.098 24.6935L39.6408 20.2969L39.7705 20.5433L23.831 32.0861ZM28.2407 24.9529L24.2331 31.4376L38.72 20.9453L28.2407 24.9529Z" fill="#021C27"/>
<path d="M23.8441 39.3365L23.5977 39.2457V31.9828L23.6625 31.8661L39.615 20.3232L39.8095 20.5308L23.8441 39.3365ZM23.883 32.0476V38.8436L38.8238 21.2311L23.883 32.0476Z" fill="#021C27"/>
<path d="M23.7403 31.9823L7.78784 20.4395L23.7403 39.2452V31.9823Z" fill="#021C27"/>
<path d="M23.6365 39.3365L7.68408 20.5308L7.87862 20.3232L23.8311 31.8661L23.8959 31.9828V39.2457L23.6365 39.3365ZM8.65679 21.2441L23.5976 38.8566V32.0606L8.65679 21.2441Z" fill="#021C27"/>
<path d="M23.6625 32.0861L7.71002 20.5433L7.83972 20.2969L19.3825 24.6935L19.4474 24.7454L23.857 31.8916L23.6625 32.0861ZM8.74758 20.9583L23.2345 31.4506L19.2269 24.9659L8.74758 20.9583Z" fill="#021C27"/>
</svg>
