<svg width="30" height="23" viewBox="0 0 30 23" fill="none" xmlns="http://www.w3.org/2000/svg">
<path d="M1.36359 13.5692V20.5C1.36359 21.6046 2.25902 22.5 3.36359 22.5H4.81813C5.9227 22.5 6.81813 21.6046 6.81813 20.5V18.4091H23.1818V20.5C23.1818 21.6046 24.0772 22.5 25.1818 22.5H26.6363C27.7409 22.5 28.6363 21.6046 28.6363 20.5V13.5692C28.6363 12.263 28.3804 10.9695 27.8831 9.76166L24.6285 1.85775C24.1657 0.733645 23.0702 0 21.8545 0H8.14539C6.92972 0 5.83422 0.733647 5.37136 1.85775L2.11681 9.76166C1.61948 10.9695 1.36359 12.263 1.36359 13.5692Z" fill="#009FE3"/>
<path d="M7.65392 3.91526L5.45453 8.8639H24.5454L22.346 3.91526C22.025 3.19301 21.3088 2.72754 20.5184 2.72754H9.48155C8.69117 2.72754 7.97493 3.19301 7.65392 3.91526Z" fill="white"/>
<path d="M4.09094 13.2951C4.09094 12.3537 4.85409 11.5906 5.79549 11.5906H6.47731C7.4187 11.5906 8.18185 12.3537 8.18185 13.2951C8.18185 14.2365 7.4187 14.9997 6.47731 14.9997H5.79549C4.85409 14.9997 4.09094 14.2365 4.09094 13.2951Z" fill="white"/>
<path d="M21.8181 13.2951C21.8181 12.3537 22.5813 11.5906 23.5227 11.5906H24.2045C25.1459 11.5906 25.909 12.3537 25.909 13.2951C25.909 14.2365 25.1459 14.9997 24.2045 14.9997H23.5227C22.5813 14.9997 21.8181 14.2365 21.8181 13.2951Z" fill="white"/>
<rect x="10.2274" y="11.5906" width="9.54545" height="1.36364" fill="white"/>
<rect x="10.2274" y="13.6362" width="9.54545" height="1.36364" fill="white"/>
<path d="M0 7.13623C0 6.58395 0.447715 6.13623 1 6.13623H1.9465C2.40536 6.13623 2.80535 6.44853 2.91664 6.89369L3.40909 8.8635H1C0.447716 8.8635 0 8.41579 0 7.8635V7.13623Z" fill="#009FE3"/>
<path d="M30 7.13623C30 6.58395 29.5523 6.13623 29 6.13623H28.0535C27.5946 6.13623 27.1947 6.44853 27.0834 6.89369L26.5909 8.8635H29C29.5523 8.8635 30 8.41579 30 7.8635V7.13623Z" fill="#009FE3"/>
</svg>
