<svg width="30" height="30" viewBox="0 0 30 30" fill="none" xmlns="http://www.w3.org/2000/svg">
<g clip-path="url(#clip0_881_1342)">
<path d="M15.5358 21.4287H14.4644V27.8573H15.5358V21.4287Z" fill="#009FE3"/>
<path d="M27.8571 23.489L21.1575 27.8572H27.8571V23.489Z" fill="#009FE3"/>
<path d="M27.8572 21.4287H26.9068L17.0518 27.8573H19.1962L27.8572 22.2098V21.4287Z" fill="#009FE3"/>
<path d="M2.14282 27.8572H8.84249L2.14282 23.489V27.8572Z" fill="#009FE3"/>
<path d="M1.07145 21.4287H0V27.8573H1.07145V21.4287Z" fill="#009FE3"/>
<path d="M2.14282 21.4287V22.2098L10.8037 27.8573H12.9482L3.09321 21.4287H2.14282Z" fill="#009FE3"/>
<path d="M13.9286 28.9287H0V30.0002H1.60717H28.3928H30V28.9287H16.0714H13.9286Z" fill="#009FE3"/>
<path d="M13.3929 21.4287H5.05347L13.3929 26.8684V21.4287Z" fill="#009FE3"/>
<path d="M16.6072 26.8684L24.9466 21.4287H16.6072V26.8684Z" fill="#009FE3"/>
<path d="M16.6072 18.2142H26.8468L16.6072 4.03491V18.2142Z" fill="#009FE3"/>
<path d="M30 21.4287H28.9286V27.8573H30V21.4287Z" fill="#009FE3"/>
<path d="M13.3929 18.2142V4.03491L3.15332 18.2142H13.3929Z" fill="#009FE3"/>
<path d="M16.333 0H13.667L0 18.9231V20.3571H30V18.9231L16.333 0ZM14.4643 18.75C14.4643 18.8921 14.4079 19.0284 14.3074 19.1289C14.2069 19.2294 14.0706 19.2858 13.9286 19.2857H2.10521C1.904 19.2858 1.71973 19.1731 1.62814 18.9939C1.53656 18.8148 1.55309 18.5994 1.67098 18.4363L13.4944 2.0649C13.5028 2.05318 13.5156 2.0475 13.5248 2.0366C13.6184 1.93107 13.7482 1.8648 13.8885 1.85086C13.9024 1.8498 13.9143 1.84277 13.9286 1.84277C13.9472 1.84547 13.9658 1.84916 13.984 1.85396C14.0568 1.86018 14.1271 1.88291 14.1898 1.92041C14.2078 1.92738 14.2254 1.93535 14.2424 1.94426C14.2542 1.95281 14.26 1.9657 14.2709 1.97502C14.3756 2.06842 14.4417 2.19768 14.456 2.33736C14.4572 2.35166 14.4643 2.36391 14.4643 2.37855L14.4643 18.75ZM28.3719 18.9938C28.2803 19.173 28.0961 19.2858 27.8948 19.2857H16.0714C15.9294 19.2858 15.7931 19.2294 15.6926 19.1289C15.5921 19.0284 15.5357 18.8921 15.5357 18.75V2.37855C15.5357 2.36396 15.5429 2.35172 15.544 2.33742C15.5583 2.19773 15.6244 2.06848 15.7292 1.97508C15.7401 1.96582 15.7458 1.95287 15.7576 1.94432C15.7748 1.93523 15.7925 1.92721 15.8106 1.92023C15.8732 1.88273 15.9435 1.86012 16.0162 1.85402C16.0344 1.84928 16.0529 1.84553 16.0716 1.84283C16.0857 1.84283 16.0976 1.8498 16.1116 1.85092C16.2519 1.86498 16.3818 1.93137 16.4754 2.03684C16.4846 2.04762 16.4974 2.05324 16.5058 2.0649L28.3292 18.4364C28.4468 18.5994 28.4634 18.8147 28.3719 18.9938Z" fill="#009FE3"/>
</g>
<defs>
<clipPath id="clip0_881_1342">
<rect width="30" height="30" fill="white"/>
</clipPath>
</defs>
</svg>
