<svg width="48" height="48" viewBox="0 0 48 48" fill="none" xmlns="http://www.w3.org/2000/svg">
<path fill-rule="evenodd" clip-rule="evenodd" d="M0 0H48V48H0V0Z" fill="white"/>
<path fill-rule="evenodd" clip-rule="evenodd" d="M18.8714 35.5517V40.4563C18.3485 40.5061 17.8008 40.531 17.2282 40.531C8.11617 40.531 0.697083 33.1119 0.697083 23.9999C0.697083 14.8878 8.14106 7.46875 17.2282 7.46875C17.7759 7.46875 18.3236 7.49365 18.8714 7.54344V12.448C18.3485 12.3733 17.8008 12.3235 17.2282 12.3235C10.805 12.3235 5.55185 17.5766 5.55185 23.9999C5.55185 30.4231 10.805 35.6762 17.2282 35.6762C17.8008 35.6513 18.3485 35.6264 18.8714 35.5517Z" fill="black"/>
<path fill-rule="evenodd" clip-rule="evenodd" d="M34.2573 21.4605H43.8175V26.5144H34.2573C35.4274 31.7177 40.083 35.6513 45.6349 35.6513C46.1826 35.6513 46.7303 35.6015 47.278 35.5268V40.4314C46.7303 40.4812 46.1826 40.5061 45.6349 40.5061C36.5228 40.5061 29.1038 33.087 29.1038 23.975C29.1038 14.8629 36.5477 7.46875 45.6349 7.46875C46.1826 7.46875 46.7303 7.49365 47.278 7.54344V12.448C46.7303 12.3733 46.1826 12.3235 45.6349 12.3235C40.083 12.3235 35.4025 16.2571 34.2573 21.4605Z" fill="black"/>
</svg>
