<svg width="30" height="33" viewBox="0 0 30 33" fill="none" xmlns="http://www.w3.org/2000/svg">
<path fill-rule="evenodd" clip-rule="evenodd" d="M14.3182 2.72727V0.681818C14.3182 0.30526 14.6234 0 15 0C15.3766 0 15.6818 0.305261 15.6818 0.681818V2.72727L15.6511 2.75796C19.1113 3.08578 21.8182 5.9995 21.8182 9.54546V10.9091H8.18182V9.54546C8.18182 5.9995 10.8887 3.08578 14.3489 2.75796L14.3182 2.72727ZM8.18182 32.7273V12.2727H21.8182V32.7273H8.18182ZM0 22.3986V32.7272H6.81818V17.7272L2.51524 19.0181C1.02236 19.4659 0 20.84 0 22.3986ZM30 22.3987V32.7273H23.1818V17.7273L27.4848 19.0182C28.9776 19.466 30 20.8401 30 22.3987ZM15.0001 19.0909C16.1297 19.0909 17.0455 18.1751 17.0455 17.0455C17.0455 15.9158 16.1297 15 15.0001 15C13.8704 15 12.9546 15.9158 12.9546 17.0455C12.9546 18.1751 13.8704 19.0909 15.0001 19.0909ZM15.0001 23.1818C13.1173 23.1818 11.591 24.7081 11.591 26.5909V32.7273H18.4091V26.5909C18.4091 24.7081 16.8828 23.1818 15.0001 23.1818ZM2.72733 23.1818C2.72733 22.8053 3.03259 22.5 3.40914 22.5C3.7857 22.5 4.09096 22.8053 4.09096 23.1818V25.9091C4.09096 26.2856 3.7857 26.5909 3.40914 26.5909C3.03259 26.5909 2.72733 26.2856 2.72733 25.9091V23.1818ZM26.591 22.5C26.2144 22.5 25.9091 22.8053 25.9091 23.1818V25.9091C25.9091 26.2856 26.2144 26.5909 26.591 26.5909C26.9675 26.5909 27.2728 26.2856 27.2728 25.9091V23.1818C27.2728 22.8053 26.9675 22.5 26.591 22.5Z" fill="#009FE3"/>
</svg>
