<svg width="30" height="30" viewBox="0 0 30 30" fill="none" xmlns="http://www.w3.org/2000/svg">
<path d="M0 15C0 6.71573 6.71573 0 15 0C23.2843 0 30 6.71573 30 15C30 23.2843 23.2843 30 15 30C6.71573 30 0 23.2843 0 15Z" fill="#009FE3"/>
<path d="M7.5 13.5C7.5 10.1863 10.1863 7.5 13.5 7.5H16.5C19.8137 7.5 22.5 10.1863 22.5 13.5V19.9091C22.5 23.2228 19.8137 25.9091 16.5 25.9091H13.5C10.1863 25.9091 7.5 23.2228 7.5 19.9091V13.5Z" fill="white"/>
<path d="M9.54547 14.9543C9.54547 13.8498 10.4409 12.9543 11.5455 12.9543H18.4546C19.5591 12.9543 20.4546 13.8498 20.4546 14.9543V15.7271C20.4546 16.8316 19.5591 17.7271 18.4546 17.7271H11.5455C10.4409 17.7271 9.54547 16.8316 9.54547 15.7271V14.9543Z" fill="#009FE3"/>
<circle cx="10.5682" cy="20.7952" r="1.02273" fill="#009FE3"/>
<circle cx="19.4318" cy="20.7952" r="1.02273" fill="#009FE3"/>
<rect x="12.2726" y="9.54565" width="5.45455" height="1.36364" rx="0.681818" fill="#009FE3"/>
<path fill-rule="evenodd" clip-rule="evenodd" d="M11.7107 24.7249C11.9882 24.9793 12.007 25.4106 11.7525 25.6882L8.00254 29.7791C7.74809 30.0567 7.3168 30.0754 7.03922 29.821C6.76163 29.5665 6.74288 29.1352 6.99733 28.8577L10.7473 24.7668C11.0018 24.4892 11.4331 24.4704 11.7107 24.7249Z" fill="white"/>
<path fill-rule="evenodd" clip-rule="evenodd" d="M17.9483 24.7249C17.6708 24.9793 17.652 25.4106 17.9065 25.6882L21.6565 29.7791C21.9109 30.0567 22.3422 30.0754 22.6198 29.821C22.8974 29.5665 22.9161 29.1352 22.6617 28.8577L18.9117 24.7668C18.6572 24.4892 18.2259 24.4704 17.9483 24.7249Z" fill="white"/>
<rect x="8.86359" y="27.2725" width="12.2727" height="1.36364" fill="white"/>
</svg>
