<svg width="132" height="41" viewBox="0 0 132 41" fill="none" xmlns="http://www.w3.org/2000/svg">
<path d="M8.71226 8.75H3.83726L2.90726 11H0.417264L5.09726 0.499999H7.49726L12.1923 11H9.64226L8.71226 8.75ZM7.94726 6.905L6.28226 2.885L4.61726 6.905H7.94726ZM21.0826 2.93V11H18.7426V4.85H16.1926L16.1176 6.275C16.0776 7.335 15.9776 8.215 15.8176 8.915C15.6576 9.615 15.3976 10.165 15.0376 10.565C14.6776 10.965 14.1776 11.165 13.5376 11.165C13.1976 11.165 12.7926 11.105 12.3226 10.985L12.4426 9.065C12.6026 9.085 12.7176 9.095 12.7876 9.095C13.1376 9.095 13.3976 8.97 13.5676 8.72C13.7476 8.46 13.8676 8.135 13.9276 7.745C13.9876 7.345 14.0326 6.82 14.0626 6.17L14.1826 2.93H21.0826ZM31.0578 11V6.17L28.6428 10.22H27.6528L25.2978 6.155V11H23.1828V2.93H25.6278L28.2078 7.595L30.9528 2.93H33.1428L33.1728 11H31.0578ZM38.3993 2.81C39.6493 2.81 40.6093 3.11 41.2793 3.71C41.9493 4.3 42.2843 5.195 42.2843 6.395V11H40.0943V9.995C39.6543 10.745 38.8343 11.12 37.6343 11.12C37.0143 11.12 36.4743 11.015 36.0143 10.805C35.5643 10.595 35.2193 10.305 34.9793 9.935C34.7393 9.565 34.6193 9.145 34.6193 8.675C34.6193 7.925 34.8993 7.335 35.4593 6.905C36.0293 6.475 36.9043 6.26 38.0843 6.26H39.9443C39.9443 5.75 39.7893 5.36 39.4793 5.09C39.1693 4.81 38.7043 4.67 38.0843 4.67C37.6543 4.67 37.2293 4.74 36.8093 4.88C36.3993 5.01 36.0493 5.19 35.7593 5.42L34.9193 3.785C35.3593 3.475 35.8843 3.235 36.4943 3.065C37.1143 2.895 37.7493 2.81 38.3993 2.81ZM38.2193 9.545C38.6193 9.545 38.9743 9.455 39.2843 9.275C39.5943 9.085 39.8143 8.81 39.9443 8.45V7.625H38.3393C37.3793 7.625 36.8993 7.94 36.8993 8.57C36.8993 8.87 37.0143 9.11 37.2443 9.29C37.4843 9.46 37.8093 9.545 38.2193 9.545ZM49.3288 6.8C49.8088 6.95 50.1788 7.18 50.4388 7.49C50.7088 7.8 50.8438 8.17 50.8438 8.6C50.8438 9.11 50.6688 9.56 50.3188 9.95C49.9688 10.33 49.4888 10.625 48.8788 10.835C48.2688 11.045 47.5788 11.15 46.8088 11.15C46.1788 11.15 45.5588 11.085 44.9487 10.955C44.3388 10.825 43.7738 10.63 43.2538 10.37L43.8838 8.735C44.7338 9.145 45.6738 9.35 46.7038 9.35C47.2538 9.35 47.6838 9.27 47.9938 9.11C48.3138 8.94 48.4738 8.705 48.4738 8.405C48.4738 8.145 48.3638 7.95 48.1438 7.82C47.9238 7.68 47.6038 7.61 47.1838 7.61H45.5338V6.155H46.9738C47.3838 6.155 47.6988 6.09 47.9188 5.96C48.1388 5.83 48.2488 5.64 48.2488 5.39C48.2488 5.13 48.1088 4.93 47.8288 4.79C47.5588 4.65 47.1688 4.58 46.6588 4.58C45.8788 4.58 45.0288 4.765 44.1088 5.135L43.5388 3.515C44.6588 3.025 45.7488 2.78 46.8088 2.78C47.5388 2.78 48.1888 2.87 48.7588 3.05C49.3388 3.23 49.7938 3.495 50.1238 3.845C50.4538 4.185 50.6188 4.585 50.6188 5.045C50.6188 5.425 50.5038 5.77 50.2738 6.08C50.0438 6.38 49.7288 6.62 49.3288 6.8ZM52.3959 2.93H54.7209V6.08H58.2309V2.93H60.5709V11H58.2309V7.985H54.7209V11H52.3959V2.93ZM65.7959 2.81C67.0459 2.81 68.0059 3.11 68.6759 3.71C69.3459 4.3 69.6809 5.195 69.6809 6.395V11H67.4909V9.995C67.0509 10.745 66.2309 11.12 65.0309 11.12C64.4109 11.12 63.8709 11.015 63.4109 10.805C62.9609 10.595 62.6159 10.305 62.3759 9.935C62.1359 9.565 62.0159 9.145 62.0159 8.675C62.0159 7.925 62.2959 7.335 62.8559 6.905C63.4259 6.475 64.3009 6.26 65.4809 6.26H67.3409C67.3409 5.75 67.1859 5.36 66.8759 5.09C66.5659 4.81 66.1009 4.67 65.4809 4.67C65.0509 4.67 64.6259 4.74 64.2059 4.88C63.7959 5.01 63.4459 5.19 63.1559 5.42L62.3159 3.785C62.7559 3.475 63.2809 3.235 63.8909 3.065C64.5109 2.895 65.1459 2.81 65.7959 2.81ZM65.6159 9.545C66.0159 9.545 66.3709 9.455 66.6809 9.275C66.9909 9.085 67.2109 8.81 67.3409 8.45V7.625H65.7359C64.7759 7.625 64.2959 7.94 64.2959 8.57C64.2959 8.87 64.4109 9.11 64.6409 9.29C64.8809 9.46 65.2059 9.545 65.6159 9.545ZM78.7337 2.93V11H76.6487V8.69H74.9237L73.3937 11H70.9037L72.7487 8.36C72.1887 8.14 71.7587 7.825 71.4587 7.415C71.1687 6.995 71.0237 6.49 71.0237 5.9C71.0237 4.95 71.3637 4.22 72.0437 3.71C72.7337 3.19 73.6787 2.93 74.8787 2.93H78.7337ZM74.9237 4.835C74.4237 4.835 74.0437 4.925 73.7837 5.105C73.5337 5.285 73.4087 5.575 73.4087 5.975C73.4087 6.375 73.5287 6.67 73.7687 6.86C74.0187 7.04 74.3937 7.13 74.8937 7.13H76.6487V4.835H74.9237ZM97.2457 2.93V11H84.9307V2.93H87.2557V9.08H89.9407V2.93H92.2657V9.08H94.9207V2.93H97.2457ZM102.476 2.81C103.726 2.81 104.686 3.11 105.356 3.71C106.026 4.3 106.361 5.195 106.361 6.395V11H104.171V9.995C103.731 10.745 102.911 11.12 101.711 11.12C101.091 11.12 100.551 11.015 100.091 10.805C99.6412 10.595 99.2962 10.305 99.0562 9.935C98.8162 9.565 98.6962 9.145 98.6962 8.675C98.6962 7.925 98.9762 7.335 99.5362 6.905C100.106 6.475 100.981 6.26 102.161 6.26H104.021C104.021 5.75 103.866 5.36 103.556 5.09C103.246 4.81 102.781 4.67 102.161 4.67C101.731 4.67 101.306 4.74 100.886 4.88C100.476 5.01 100.126 5.19 99.8362 5.42L98.9962 3.785C99.4362 3.475 99.9612 3.235 100.571 3.065C101.191 2.895 101.826 2.81 102.476 2.81ZM102.296 9.545C102.696 9.545 103.051 9.455 103.361 9.275C103.671 9.085 103.891 8.81 104.021 8.45V7.625H102.416C101.456 7.625 100.976 7.94 100.976 8.57C100.976 8.87 101.091 9.11 101.321 9.29C101.561 9.46 101.886 9.545 102.296 9.545ZM113.314 11L111.544 8.525L109.714 11H107.164L110.269 6.935L107.269 2.93H109.894L111.604 5.285L113.359 2.93H115.849L112.849 6.875L115.969 11H113.314ZM123.678 4.85H120.948V11H118.623V4.85H115.893V2.93H123.678V4.85ZM127.91 2.81C129.16 2.81 130.12 3.11 130.79 3.71C131.46 4.3 131.795 5.195 131.795 6.395V11H129.605V9.995C129.165 10.745 128.345 11.12 127.145 11.12C126.525 11.12 125.985 11.015 125.525 10.805C125.075 10.595 124.73 10.305 124.49 9.935C124.25 9.565 124.13 9.145 124.13 8.675C124.13 7.925 124.41 7.335 124.97 6.905C125.54 6.475 126.415 6.26 127.595 6.26H129.455C129.455 5.75 129.3 5.36 128.99 5.09C128.68 4.81 128.215 4.67 127.595 4.67C127.165 4.67 126.74 4.74 126.32 4.88C125.91 5.01 125.56 5.19 125.27 5.42L124.43 3.785C124.87 3.475 125.395 3.235 126.005 3.065C126.625 2.895 127.26 2.81 127.91 2.81ZM127.73 9.545C128.13 9.545 128.485 9.455 128.795 9.275C129.105 9.085 129.325 8.81 129.455 8.45V7.625H127.85C126.89 7.625 126.41 7.94 126.41 8.57C126.41 8.87 126.525 9.11 126.755 9.29C126.995 9.46 127.32 9.545 127.73 9.545ZM55.9293 36L55.9063 26.363L51.1683 34.298H49.5123L44.7743 26.547V36H41.2783V19.9H44.3603L50.3863 29.905L56.3203 19.9H59.4023L59.4253 36H55.9293ZM63.1488 23.626H66.7138V30.986L72.7398 23.626H76.0288V36H72.4638V28.64L66.4608 36H63.1488V23.626ZM86.7689 23.442C87.9189 23.442 88.9616 23.7103 89.8969 24.247C90.8476 24.7683 91.5913 25.512 92.1279 26.478C92.6646 27.4287 92.9329 28.5403 92.9329 29.813C92.9329 31.0857 92.6646 32.205 92.1279 33.171C91.5913 34.1217 90.8476 34.8653 89.8969 35.402C88.9616 35.9233 87.9189 36.184 86.7689 36.184C85.1896 36.184 83.9476 35.6857 83.0429 34.689V40.462H79.4549V23.626H82.8819V25.052C83.7713 23.9787 85.0669 23.442 86.7689 23.442ZM86.1479 33.24C87.0679 33.24 87.8193 32.9333 88.4019 32.32C88.9999 31.6913 89.2989 30.8557 89.2989 29.813C89.2989 28.7703 88.9999 27.9423 88.4019 27.329C87.8193 26.7003 87.0679 26.386 86.1479 26.386C85.2279 26.386 84.4689 26.7003 83.8709 27.329C83.2883 27.9423 82.9969 28.7703 82.9969 29.813C82.9969 30.8557 83.2883 31.6913 83.8709 32.32C84.4689 32.9333 85.2279 33.24 86.1479 33.24Z" fill="#021C27"/>
</svg>
