<svg width="70" height="61" viewBox="0 0 70 61" fill="none" xmlns="http://www.w3.org/2000/svg">
<g clip-path="url(#clip0_881_3583)">
<path d="M63.0392 17.643C62.8708 17.5747 62.6018 17.4328 62.2813 17.3473C61.9609 17.2568 61.5278 17.1065 61.0862 17.0687C60.64 17.0221 60.1357 17.0083 59.5845 17.0349C59.0464 17.0788 58.5002 17.193 57.9144 17.3445C57.3293 17.4955 56.794 17.7468 56.2222 18.0217C55.6641 18.3061 55.1555 18.661 54.6462 19.0474C54.1648 19.4465 53.7081 19.8884 53.2906 20.3582C52.9011 20.8408 52.5141 21.3374 52.2159 21.8674C51.9085 22.3936 51.6435 22.9356 51.4516 23.4898C51.0414 24.587 50.8779 25.716 50.8607 26.7215C50.8622 27.2316 50.8923 27.7051 50.9554 28.14C51.0106 28.5724 51.1189 28.9715 51.2025 29.2942C51.2362 29.4456 51.2837 29.5904 51.3305 29.7184C51.4128 29.5457 51.5021 29.3635 51.6018 29.1642C52.0969 28.1821 52.8186 26.9032 53.6626 25.7055C54.083 25.1057 54.5442 24.5354 54.9937 24.0199C55.232 23.7722 55.4622 23.534 55.6796 23.308C55.9133 23.0982 56.1339 22.8993 56.336 22.7163C56.5553 22.5515 56.7551 22.4016 56.933 22.268C57.1035 22.1264 57.282 22.0441 57.4158 21.9591C57.6886 21.7975 57.8444 21.7054 57.8444 21.7054C57.8444 21.7054 57.696 21.8102 57.4371 21.9915C57.3112 22.0877 57.1422 22.1812 56.9835 22.3348C56.8189 22.48 56.6335 22.6434 56.4308 22.8217C56.245 23.0185 56.0441 23.2296 55.8317 23.4539C55.6362 23.6921 55.4296 23.9434 55.2165 24.2038C54.8144 24.7455 54.4101 25.3364 54.0462 25.9555C53.3135 27.188 52.7095 28.4917 52.3031 29.4838C52.1888 29.7633 52.0926 30.0131 52.0099 30.2337C52.1839 30.1873 52.4049 30.1381 52.6434 30.0501C52.9458 29.945 53.3363 29.8368 53.7148 29.6823C54.1023 29.5341 54.5154 29.359 54.9321 29.1597C55.3555 28.9634 55.7679 28.7327 56.1904 28.4899C56.6125 28.2483 57.0122 27.9718 57.4094 27.6874C57.7952 27.3919 58.1782 27.0933 58.5257 26.7627C58.8692 26.4229 59.2161 26.1041 59.516 25.7357C60.1327 25.0293 60.6581 24.2736 61.0862 23.476C61.3089 23.1003 61.4941 22.663 61.6756 22.2678C61.8593 21.8755 62.0152 21.4403 62.1705 21.0412C62.3271 20.6494 62.4719 20.2525 62.5997 19.8658C62.7387 19.4676 62.86 19.1205 62.9608 18.8352C63.077 18.5515 63.1496 18.2548 63.2151 18.0802C63.2755 17.883 63.3064 17.7788 63.3064 17.7788C63.3064 17.7788 63.2127 17.7221 63.0392 17.643Z" fill="#021C27"/>
<path d="M49.3723 26.4714C48.7726 26.0508 48.2029 25.5894 47.6872 25.1394C47.4402 24.9027 47.2017 24.6717 46.9753 24.4544C46.765 24.2207 46.5674 24.0001 46.3829 23.7979C46.2186 23.5795 46.0691 23.378 45.9348 23.201C45.7933 23.0302 45.7121 22.8519 45.6264 22.7181C45.4644 22.446 45.3725 22.2896 45.3725 22.2896C45.3725 22.2896 45.4773 22.438 45.6595 22.6968C45.7542 22.8225 45.8483 22.9913 46.0027 23.1501C46.1479 23.3153 46.3112 23.5006 46.4897 23.7034C46.686 23.8886 46.8976 24.0901 47.1218 24.3016C47.3596 24.4971 47.6118 24.7037 47.8717 24.9168C48.4128 25.3174 49.0044 25.7232 49.623 26.0871C49.879 26.24 50.1385 26.3745 50.3971 26.5126C50.4826 25.1293 50.7666 23.7618 51.1917 22.5164C50.9481 22.2015 50.7011 21.8916 50.4294 21.6078C50.0898 21.2637 49.7723 20.9168 49.4026 20.6173C48.6957 20.0006 47.9409 19.4755 47.1435 19.0467C46.7678 18.824 46.3299 18.6388 45.9346 18.4575C45.5432 18.2738 45.1085 18.1173 44.7092 17.9628C44.3169 17.8069 43.9204 17.6625 43.5333 17.5347C43.1353 17.3947 42.789 17.2733 42.5027 17.1726C42.219 17.057 41.9217 16.9837 41.7477 16.9182C41.5514 16.8587 41.4467 16.8271 41.4467 16.8271C41.4467 16.8271 41.3885 16.9219 41.3088 17.0952C41.2412 17.2632 41.099 17.5326 41.0131 17.853C40.9231 18.1725 40.7723 18.6057 40.7355 19.0476C40.6881 19.4941 40.6745 19.9991 40.7018 20.5501C40.7443 21.0878 40.8584 21.6331 41.0103 22.2198C41.1623 22.8045 41.413 23.3404 41.6875 23.9126C41.9724 24.4692 42.3268 24.9778 42.7145 25.488C43.1134 25.9702 43.5552 26.4267 44.0248 26.8449C44.5066 27.233 45.0043 27.6203 45.5351 27.9196C46.0603 28.2269 46.6024 28.4922 47.1564 28.6834C48.2532 29.0943 49.3822 29.2576 50.3886 29.2752C50.4315 29.2752 50.4682 29.2707 50.5091 29.2694C50.4014 28.5644 50.3623 27.8448 50.3757 27.1222C50.0416 26.9123 49.7061 26.7066 49.3723 26.4714Z" fill="#021C27"/>
</g>
<path d="M19.7049 21.5115H13.9621V23.816H19.2337V25.7008H13.9621V28.4912H19.9699V30.4423H11.7459V19.5898H19.7049V21.5115Z" fill="#021C27"/>
<path d="M25.7755 22.2256C25.8147 22.2256 25.8467 22.2281 25.8712 22.233C25.9006 22.233 25.962 22.2355 26.0553 22.2404V24.3902C25.9227 24.3755 25.8049 24.3657 25.7019 24.3608C25.5988 24.3559 25.5153 24.3534 25.4515 24.3534C24.6073 24.3534 24.0404 24.6283 23.7508 25.178C23.5888 25.4873 23.5078 25.9634 23.5078 26.6064V30.4423H21.3947V22.4171H23.3974V23.816C23.7213 23.281 24.0036 22.9153 24.2441 22.7189C24.6367 22.3901 25.1472 22.2256 25.7755 22.2256Z" fill="#021C27"/>
<path d="M33.4217 23.0429C33.4217 22.4784 33.272 22.0759 32.9726 21.8354C32.6781 21.5949 32.2633 21.4747 31.7283 21.4747H29.6152V24.67H31.7283C32.2633 24.67 32.6781 24.54 32.9726 24.2798C33.272 24.0197 33.4217 23.6074 33.4217 23.0429ZM35.6673 23.0282C35.6673 24.3093 35.3433 25.2149 34.6954 25.745C34.0475 26.2751 33.1223 26.5401 31.9197 26.5401H29.6152V30.4423H27.3623V19.5898H32.089C33.1787 19.5898 34.0475 19.8696 34.6954 20.4292C35.3433 20.9887 35.6673 21.8551 35.6673 23.0282Z" fill="#021C27"/>
<path d="M13.9473 34.0401V36.9557H16.5169C17.0274 36.9557 17.4102 36.8968 17.6654 36.779C18.117 36.5729 18.3428 36.1655 18.3428 35.5568C18.3428 34.8991 18.1244 34.4574 17.6875 34.2316C17.4421 34.104 17.074 34.0401 16.5831 34.0401H13.9473ZM17.0544 32.1553C17.8152 32.17 18.3992 32.2633 18.8066 32.4351C19.219 32.6069 19.5674 32.8597 19.8521 33.1934C20.0877 33.4683 20.2743 33.7726 20.4117 34.1064C20.5491 34.4402 20.6178 34.8206 20.6178 35.2476C20.6178 35.763 20.4878 36.271 20.2276 36.7717C19.9675 37.2674 19.538 37.6184 18.9392 37.8245C19.4398 38.0258 19.7932 38.3129 19.9994 38.6859C20.2104 39.0541 20.316 39.6185 20.316 40.3793V41.1082C20.316 41.604 20.3356 41.9402 20.3749 42.1169C20.4338 42.3967 20.5712 42.6028 20.7872 42.7354V43.0078H18.2913C18.2225 42.7673 18.1735 42.5734 18.144 42.4261C18.0851 42.1218 18.0532 41.8101 18.0483 41.4911L18.0336 40.4824C18.0238 39.7903 17.8961 39.3289 17.6507 39.0982C17.4102 38.8675 16.9562 38.7522 16.2886 38.7522H13.9473V43.0078H11.7312V32.1553H17.0544Z" fill="#021C27"/>
<path d="M25.4221 36.4992C24.9361 36.4992 24.5582 36.6514 24.2882 36.9557C24.0232 37.26 23.8563 37.6724 23.7876 38.1926H27.0492C27.0148 37.638 26.8455 37.2183 26.5412 36.9336C26.2418 36.644 25.8687 36.4992 25.4221 36.4992ZM25.4221 34.769C26.0896 34.769 26.6909 34.8942 27.2259 35.1445C27.7609 35.3949 28.2027 35.79 28.5512 36.3299C28.8653 36.806 29.069 37.3582 29.1623 37.9865C29.2163 38.3546 29.2383 38.8847 29.2285 39.5768H23.736C23.7655 40.3818 24.0183 40.9463 24.4944 41.2702C24.784 41.4714 25.1325 41.5721 25.5399 41.5721C25.9718 41.5721 26.3228 41.4494 26.5927 41.2039C26.74 41.0714 26.8701 40.8874 26.9829 40.6517H29.1255C29.0715 41.1279 28.8236 41.6113 28.3818 42.1022C27.6947 42.8826 26.7326 43.2728 25.4957 43.2728C24.4748 43.2728 23.5741 42.944 22.7936 42.2862C22.0132 41.6285 21.623 40.5585 21.623 39.0762C21.623 37.6871 21.9739 36.622 22.6758 35.8808C23.3826 35.1396 24.2981 34.769 25.4221 34.769Z" fill="#021C27"/>
<path d="M34.9236 39.1056C34.7911 39.189 34.6561 39.2578 34.5187 39.3118C34.3862 39.3608 34.2021 39.4075 33.9665 39.4516L33.4953 39.54C33.0535 39.6185 32.737 39.7142 32.5455 39.8271C32.2216 40.0186 32.0596 40.3155 32.0596 40.718C32.0596 41.0763 32.1578 41.3365 32.3541 41.4984C32.5553 41.6555 32.7983 41.734 33.083 41.734C33.5346 41.734 33.9493 41.6015 34.3273 41.3365C34.7101 41.0714 34.9089 40.5879 34.9236 39.886V39.1056ZM33.6499 38.1264C34.0377 38.0773 34.315 38.0159 34.4819 37.9423C34.7813 37.8147 34.931 37.6159 34.931 37.3459C34.931 37.0171 34.8157 36.7913 34.585 36.6686C34.3592 36.541 34.0254 36.4772 33.5837 36.4772C33.0879 36.4772 32.737 36.5999 32.5308 36.8453C32.3835 37.0269 32.2854 37.2723 32.2363 37.5815H30.2116C30.2558 36.8796 30.4521 36.3029 30.8006 35.8513C31.3552 35.1445 32.3075 34.7911 33.6573 34.7911C34.5359 34.7911 35.3163 34.9654 35.9986 35.3139C36.6808 35.6624 37.022 36.3201 37.022 37.287V40.9683C37.022 41.2236 37.0269 41.5328 37.0367 41.896C37.0514 42.1709 37.0931 42.3574 37.1619 42.4556C37.2306 42.5537 37.3337 42.6347 37.4711 42.6985V43.0078H35.1887C35.1249 42.8458 35.0807 42.6936 35.0562 42.5513C35.0316 42.409 35.012 42.247 34.9973 42.0654C34.7077 42.3795 34.3739 42.647 33.996 42.8679C33.5444 43.128 33.0339 43.2581 32.4645 43.2581C31.7381 43.2581 31.1368 43.052 30.6607 42.6396C30.1895 42.2224 29.9539 41.6334 29.9539 40.8726C29.9539 39.886 30.3343 39.1719 31.0951 38.7301C31.5123 38.4896 32.1259 38.3178 32.9357 38.2147L33.6499 38.1264Z" fill="#021C27"/>
<path d="M41.701 34.7911C42.187 34.7911 42.6189 34.8991 42.9969 35.1151C43.3748 35.3261 43.6816 35.6206 43.9172 35.9986V32.17H46.045V43.0078H44.0055V41.896C43.7061 42.3721 43.365 42.7182 42.9821 42.9341C42.5993 43.1501 42.1232 43.2581 41.5538 43.2581C40.6163 43.2581 39.826 42.8802 39.183 42.1243C38.545 41.3635 38.2259 40.3891 38.2259 39.2013C38.2259 37.8319 38.54 36.7545 39.1683 35.9691C39.8015 35.1838 40.6457 34.7911 41.701 34.7911ZM42.1575 41.4911C42.7514 41.4911 43.203 41.2702 43.5122 40.8284C43.8215 40.3867 43.9761 39.8149 43.9761 39.113C43.9761 38.1313 43.7282 37.4294 43.2325 37.0073C42.9281 36.752 42.5747 36.6244 42.1723 36.6244C41.5587 36.6244 41.1071 36.8576 40.8175 37.3239C40.5329 37.7852 40.3905 38.3595 40.3905 39.0467C40.3905 39.7879 40.5353 40.3818 40.8249 40.8284C41.1194 41.2702 41.5636 41.4911 42.1575 41.4911Z" fill="#021C27"/>
<path d="M48.1324 44.5466L48.3975 44.5613C48.6036 44.5711 48.8 44.5637 48.9865 44.5392C49.173 44.5147 49.3301 44.4582 49.4577 44.3699C49.5804 44.2864 49.6933 44.1122 49.7964 43.8471C49.9043 43.5821 49.9485 43.4201 49.9289 43.3612L46.9838 34.9826H49.3178L51.0701 40.9021L52.7267 34.9826H54.9575L52.2039 42.8752C51.6738 44.3968 51.2542 45.3393 50.9449 45.7025C50.6357 46.0706 50.0172 46.2547 49.0896 46.2547C48.903 46.2547 48.7533 46.2522 48.6404 46.2473C48.5275 46.2473 48.3582 46.2399 48.1324 46.2252V44.5466Z" fill="#021C27"/>
<path fill-rule="evenodd" clip-rule="evenodd" d="M44.8659 56.203C62.7636 49.3004 72.2805 31.9788 66.8032 17.777C61.326 3.57516 42.6427 -2.87039 24.745 4.03225C6.84741 10.9349 -2.66952 28.2565 2.80773 42.4583C8.28499 56.6601 26.9683 63.1057 44.8659 56.203ZM45.3181 57.3754C63.6374 50.3101 73.7816 32.3789 67.9756 17.3248C62.1697 2.27076 42.6123 -4.20541 24.2929 2.85987C5.97354 9.92516 -4.17059 27.8564 1.63536 42.9105C7.4413 57.9645 26.9987 64.4407 45.3181 57.3754Z" fill="#021C27"/>
<defs>
<clipPath id="clip0_881_3583">
<rect width="22.6179" height="22.6179" fill="white" transform="translate(40.6881 12.2217)"/>
</clipPath>
</defs>
</svg>
