<svg width="106" height="19" viewBox="0 0 106 19" fill="none" xmlns="http://www.w3.org/2000/svg">
<path d="M76.2308 15.1538V7.46154C76.2308 5.07692 74.9231 4.61538 71.2308 4.61538C67.2308 4.61538 65.8461 5.15385 65.8461 7.92308V9.15385H69.2308V8.15385C69.2308 6.76923 69.3077 6.53846 71.0769 6.53846C72.5385 6.53846 72.6154 6.69231 72.6154 8.15385V10.9231H69.0769C66.3077 10.9231 65.4615 12.2308 65.4615 13.7692H68.9231V13.6923C68.9231 13 69.3846 12.3846 70.0769 12.3846H72.6923V15.4615C72.6923 16.5385 72.1538 16.7692 71.3846 16.7692H70C69.1538 16.7692 68.8462 16.2308 68.8462 15.4615V13.7692H65.3846V15.6923C65.3846 17.3077 66.6154 18.6154 68.5385 18.6154H77.6154V16.5385H76.2308V15.1538ZM104.385 16.6154V4.92308H99.2308V6.84615H100.692V16.6154H99.2308V18.6154H105.769V16.6154H104.385ZM91.3846 4.61538C89.4615 4.61538 88.2308 7 87.3846 8V4.84615H82.3077V6.76923H83.6923V16.5385H82.3077V18.6154H88.6154V16.5385H87.3077V11.3077C87.3077 10.8462 90.3077 7.07692 90.3077 7.46154V12.6923H93.8461V6.84615C93.8461 5.46154 93 4.61538 91.3846 4.61538ZM23.4615 11.2308H19.8462V7.53846C19.8462 6.84615 20.0769 6.46154 20.9231 6.46154H22.4615C23.0769 6.46154 23.4615 6.76923 23.4615 7.23077V11.2308ZM21.9231 4.61538H21.3846C17.2308 4.61538 16.1538 5.53846 16.1538 7.92308V15.6154C16.1538 18.2308 17.6923 18.6923 21.4615 18.7692H21.8462C25.9231 18.6923 27.1538 18.3846 27.1538 15.9231V13.9231H23.6154V14.9231C23.6154 16.3077 23.3846 16.3846 21.6923 16.3846C19.6923 16.3846 19.7692 16.2308 19.8462 14.9231V12.5385H27.2308V7.38462C27.2308 5.46154 25.7692 4.61538 21.9231 4.61538ZM100.769 2.46154H104.538V0H100.769V2.46154ZM0.538462 2.46154H2.69231V17H0V19H10V17H6.61538V10.5385H8.53846V12.3846H10.8462V6.61538H8.53846V8.30769H6.61538V2.46154H97.8461V0H0.538462V2.46154ZM41.3846 4.61538C39.4615 4.61538 38.2308 7 37.3846 8V4.84615H32.3077V6.76923H33.6923V16.5385H32.3077V18.6154H38.6154V16.5385H37.3077V11.3077C37.3077 10.8462 40.3077 7.07692 40.3077 7.46154V12.6923H43.8461V6.84615C43.8461 5.46154 43 4.61538 41.3846 4.61538ZM57.5385 4.61538C55.6154 4.61538 54.3846 7 53.5385 8V4.84615H48.4615V6.76923H49.8462V16.5385H48.4615V18.6154H54.7692V16.5385H53.4615V11.3077C53.4615 10.8462 56.4615 7.07692 56.4615 7.46154V12.6923H60V6.84615C60 5.46154 59.1538 4.61538 57.5385 4.61538Z" fill="#021C27"/>
</svg>
