<svg width="30" height="27" viewBox="0 0 30 27" fill="none" xmlns="http://www.w3.org/2000/svg">
<path d="M0 15C0 6.71574 6.71573 0 15 0C23.2843 0 30 6.71573 30 15V26.5909H0V15Z" fill="#009FE3"/>
<path d="M3.40906 17.6819C3.40906 16.5773 4.30449 15.6819 5.40906 15.6819H13.6363V26.591H3.40906V17.6819Z" fill="white"/>
<path d="M16.3636 17.6819C16.3636 16.5773 17.2591 15.6819 18.3636 15.6819H26.5909V26.591H16.3636V17.6819Z" fill="white"/>
<path d="M12.9546 15.6819L2.72729 26.591H13.6364V15.6819H12.9546Z" fill="#009FE3"/>
<path d="M26.5909 15.6819L16.3636 26.591H27.2727V15.6819H26.5909Z" fill="#009FE3"/>
<rect x="8.18176" y="11.5911" width="5.45455" height="1.36364" rx="0.681818" fill="white"/>
<rect x="8.18176" y="9.54541" width="5.45455" height="1.36364" rx="0.681818" fill="white"/>
<rect x="16.3636" y="11.5911" width="5.45455" height="1.36364" rx="0.681818" fill="white"/>
<rect x="16.3636" y="9.54541" width="5.45455" height="1.36364" rx="0.681818" fill="white"/>
</svg>
