<svg width="27" height="28" viewBox="0 0 27 28" fill="none" xmlns="http://www.w3.org/2000/svg">
<path d="M0 15.6665C0 14.0097 1.34315 12.6665 3 12.6665H12V27.9999H3C1.34315 27.9999 0 26.6567 0 24.9999V15.6665Z" fill="#009FE3"/>
<rect x="13.3334" y="9.99976" width="13.3334" height="18.0001" rx="3" fill="#009FE3"/>
<path d="M3.99994 3C3.99994 1.34314 5.34308 0 6.99994 0H13.6666C15.3235 0 16.6666 1.34315 16.6666 3V8.66669H12V11.3334H3.99994V3Z" fill="#009FE3"/>
<path d="M8.66675 4.00001V0H12.6668V4.00001L10.6668 2.66668L8.66675 4.00001Z" fill="white"/>
<path d="M6 16.6665V12.6665H10V16.6665L8.00001 15.3332L6 16.6665Z" fill="white"/>
<rect x="16.6668" y="9.99976" width="6.66669" height="2.66668" fill="white"/>
<rect x="17.9999" y="8.6665" width="4.00001" height="2.66668" fill="#009FE3"/>
<path d="M19.204 22.599C19.001 22.599 18.8087 22.5043 18.6855 22.3409L17.0181 20.1378C16.8011 19.8517 16.8576 19.4443 17.1441 19.2273C17.4311 19.0094 17.8385 19.0668 18.0555 19.3533L19.1526 20.8019L21.9111 16.3723C22.1011 16.068 22.5024 15.9747 22.8076 16.1646C23.1123 16.3541 23.2061 16.7554 23.0157 17.0606L19.7565 22.2919C19.6436 22.4744 19.448 22.5883 19.2338 22.5981C19.2236 22.599 19.2142 22.599 19.204 22.599Z" fill="white"/>
</svg>
