<svg width="185" height="30" viewBox="0 0 185 30" fill="none" xmlns="http://www.w3.org/2000/svg">
<path d="M19.1667 18.3333C19.1667 15.5602 21.384 13.3333 24.1667 13.3333C26.9058 13.3333 29.1667 15.5602 29.1667 18.3333C29.1667 21.1064 26.9493 23.3333 24.1667 23.3333C21.384 23.3333 19.1667 21.0644 19.1667 18.3333Z" fill="#E3061B"/>
<path d="M11.6115 18.5612C11.6115 11.4389 17.1799 5.65469 24 5.65469C25.6403 5.65469 26.8657 6.00001 28.3333 6.60433V1.29498C26.8657 0.863323 25.6403 0.647495 24 0.647495C14.4173 0.647495 6.60432 8.67627 6.60432 18.5612C6.60432 22.9209 8.11511 26.8921 10.6187 30H18.259C14.3309 27.8417 11.6115 23.5252 11.6115 18.5612Z" fill="#009FE3"/>
<path d="M23.9137 24.625C20.5036 24.625 17.741 22.1438 17.741 18.5611C17.741 14.9784 20.5036 12.0431 23.9568 12.0431C25.8561 12.0431 27.0833 12.5 28.3333 13.4976V8.2014C26.9089 7.51076 25.6403 7.12227 23.9568 7.12227C17.8273 7.12227 12.8633 12.259 12.8633 18.5179C12.8633 24.7769 17.8273 29.9136 23.9568 29.9136C25.6403 29.9136 26.9089 29.5251 28.3333 28.8345V22.875C27.1679 24.2563 25.8129 24.625 23.9137 24.625Z" fill="#E3061B"/>
<path d="M28.3333 0H0V5.65467H28.3333V0Z" fill="#009FE3"/>
<path d="M42.2474 7.39027H37.7086V12.5122H35V15.6586H37.7086V25.683C37.7086 29.0488 40.1245 29.7073 42.9063 29.7073C43.7848 29.7073 44.8097 29.7073 45.5417 29.561V25.9025C45.1025 25.9756 44.59 26.0488 44.1508 26.0488C42.6135 26.0488 42.2474 25.683 42.2474 24.0732V15.6586H45.5417V12.5122H42.2474V7.39027Z" fill="black"/>
<path fill-rule="evenodd" clip-rule="evenodd" d="M60.7686 22.1707C61.0614 16.9756 58.3528 12.0732 52.7891 12.0732C47.8111 12.0732 44.4436 15.9512 44.4436 21.0732C44.4436 26.3415 47.6647 30 52.7891 30C56.5226 30 59.2313 28.3171 60.4758 24.2927H56.5226C56.2298 25.3171 54.7657 26.4878 52.9355 26.4878C50.4465 26.4878 49.0556 25.1707 48.9092 22.1707H60.7686ZM48.9092 19.1707C48.9824 17.8537 49.7877 15.5854 52.6427 15.5854C54.8389 15.5854 55.7906 16.8293 56.2298 19.1707H48.9092Z" fill="black"/>
<path d="M76.874 18.5122C76.5812 14.1951 73.0672 12.0732 69.1873 12.0732C63.8432 12.0732 60.8418 15.9512 60.8418 21.2927C60.8418 26.4146 64.2093 30 69.1141 30C73.4333 30 76.4347 27.5122 77.0204 23.0488H72.7012C72.4084 25.0976 71.2371 26.4878 69.1141 26.4878C66.2591 26.4878 65.3806 23.561 65.3806 21.1463C65.3806 18.6585 66.3323 15.6585 69.1873 15.6585C71.0907 15.6585 72.262 16.6829 72.5548 18.5854H76.874V18.5122Z" fill="black"/>
<path d="M77.4597 29.4878H81.9985V20.6341C81.9985 17.1951 83.0234 15.7317 85.5124 15.7317C87.6354 15.7317 88.3675 17.1219 88.3675 19.9024V29.4878H92.9062V19.0244C92.9062 14.7804 91.7349 12 86.9033 12C85 12 83.0234 12.9512 81.9253 14.8536H81.8521V12.5122H77.5329V29.4878H77.4597Z" fill="black"/>
<path fill-rule="evenodd" clip-rule="evenodd" d="M92.9795 21C92.9795 26.4146 96.3469 29.9268 101.471 29.9268C106.669 29.9268 109.963 26.3414 109.963 21C109.963 15.5853 106.596 12 101.471 12C96.3469 12.0731 92.9795 15.5853 92.9795 21ZM97.5183 21C97.5183 18.2926 98.4699 15.5122 101.471 15.5122C104.546 15.5122 105.498 18.2195 105.498 21C105.498 23.7073 104.546 26.4146 101.471 26.4146C98.4699 26.4146 97.5183 23.7073 97.5183 21Z" fill="black"/>
<path d="M126.435 18.5122C126.142 14.1951 122.628 12.0732 118.748 12.0732C113.404 12.0732 110.403 15.9512 110.403 21.2927C110.403 26.4146 113.77 30 118.675 30C122.994 30 125.996 27.5122 126.581 23.0488H122.262C121.969 25.0976 120.798 26.4878 118.675 26.4878C115.82 26.4878 114.941 23.561 114.941 21.1463C114.941 18.6585 115.893 15.6585 118.748 15.6585C120.651 15.6585 121.823 16.6829 122.116 18.5854H126.435V18.5122Z" fill="black"/>
<path d="M131.632 6H127.094V29.4878H131.632V6Z" fill="black"/>
<path fill-rule="evenodd" clip-rule="evenodd" d="M133.097 29.4878H137.635V12.5122H133.097V29.4878ZM137.562 6H133.023V9.87805H137.562V6Z" fill="black"/>
<path d="M139.392 29.4878H143.931V19.6098C143.931 16.3171 146.054 15.7317 147.006 15.7317C149.861 15.7317 149.714 18 149.714 19.9756V29.4878H154.253V20.0488C154.253 17.9268 154.692 15.7317 157.255 15.7317C159.817 15.7317 160.036 17.6341 160.036 19.9024V29.561H164.575V18.1463C164.575 13.7561 162.086 12.0732 158.572 12.0732C156.303 12.0732 154.546 13.3902 153.594 14.9268C152.716 12.878 150.886 12.0732 148.836 12.0732C146.713 12.0732 145.029 13.0976 143.858 14.8537H143.785V12.5854H139.392V29.4878Z" fill="black"/>
<path fill-rule="evenodd" clip-rule="evenodd" d="M176.215 22.9024C176.215 23.9268 176.069 26.7805 172.555 26.7805C171.091 26.7805 169.773 26.3415 169.773 24.5854C169.773 22.9024 171.018 22.3902 172.408 22.0976C173.799 21.8049 175.41 21.8049 176.142 21.1463V22.9024H176.215ZM170.359 17.7073C170.505 15.878 171.603 15.1463 173.36 15.1463C174.971 15.1463 176.288 15.439 176.288 17.4146C176.288 19.3171 173.726 19.2439 170.944 19.6829C168.163 20.0488 165.381 21 165.381 24.878C165.381 28.3902 167.87 30 170.944 30C172.921 30 175.044 29.4146 176.435 27.878C176.435 28.4634 176.581 28.9756 176.728 29.4878H181.266C180.827 28.8293 180.681 27.2195 180.681 25.6829V16.9024C180.681 12.8049 176.728 12.0732 173.507 12.0732C169.846 12.0732 166.04 13.3902 165.82 17.7805H170.359V17.7073Z" fill="black"/>
<path fill-rule="evenodd" clip-rule="evenodd" d="M182.438 9.07318C180.974 9.07318 179.876 10.2439 179.876 11.7073C179.876 13.1707 180.974 14.3415 182.438 14.3415C183.902 14.3415 185 13.1707 185 11.7073C185 10.2439 183.902 9.07318 182.438 9.07318ZM182.438 9.43903C183.682 9.43903 184.634 10.4634 184.634 11.7073C184.634 12.9512 183.682 13.9756 182.438 13.9756C181.193 13.9756 180.242 12.9512 180.242 11.7073C180.242 10.4634 181.193 9.43903 182.438 9.43903ZM182.438 11.9268L183.243 13.3171H183.682L182.804 11.9268C183.17 11.8537 183.536 11.6342 183.536 11.0488C183.536 10.4634 183.243 10.1707 182.584 10.1707H181.413V13.2439H181.779V11.9268H182.438ZM181.852 11.561V10.4634H182.511C182.877 10.4634 183.243 10.5366 183.243 10.9756C183.243 11.4878 182.804 11.4878 182.365 11.4878H181.852V11.561Z" fill="black"/>
</svg>
