<svg width="20" height="20" viewBox="0 0 20 20" fill="none" xmlns="http://www.w3.org/2000/svg">
<path d="M8.66207 1.20414L0 9L9.03616 13.9699C9.63633 14.3 10.3637 14.3 10.9638 13.9699L20 9L11.3379 1.20414C10.5773 0.519588 9.42268 0.519589 8.66207 1.20414Z" fill="#009FE3"/>
<path d="M3 5V10.9081C3 11.5886 3.34604 12.2225 3.91849 12.5905L8.91848 15.8047C9.5773 16.2283 10.4227 16.2283 11.0815 15.8047L16.0815 12.5905C16.654 12.2225 17 11.5886 17 10.9081V5C17 3.89543 16.1046 3 15 3H5C3.89543 3 3 3.89543 3 5Z" fill="white"/>
<path d="M8.66207 16.7959L0 9V18C0 19.1046 0.895431 20 2 20H18C19.1046 20 20 19.1046 20 18V9L11.3379 16.7959C10.5773 17.4804 9.42268 17.4804 8.66207 16.7959Z" fill="#009FE3"/>
<path d="M6 6H14" stroke="#009FE3" stroke-linecap="round"/>
<path d="M6 8H14" stroke="#009FE3" stroke-linecap="round"/>
<path d="M6 10H14" stroke="#009FE3" stroke-linecap="round"/>
</svg>
