<svg width="88" height="60" viewBox="0 0 88 60" fill="none" xmlns="http://www.w3.org/2000/svg">
<path fill-rule="evenodd" clip-rule="evenodd" d="M35.3414 27.6007C36.6728 17.756 41.0616 3.8147e-06 49.4319 3.8147e-06C59.2038 3.8147e-06 70.6853 32.8246 70.6825 60H61.6712C61.6712 31.4971 54.6897 5.81511 49.6663 5.81399C44.4262 5.81345 39.8338 23.2832 39.8338 56.5669H30.8346C30.8346 23.2832 26.2701 5.81399 21.002 5.81399C15.9877 5.81399 9.01126 31.5019 9.01126 60H0C0.00846089 32.8011 11.4609 -0.00333786 21.2503 3.8147e-06C29.609 0.00277328 33.9993 17.7537 35.3414 27.6007Z" fill="#021C27"/>
<path fill-rule="evenodd" clip-rule="evenodd" d="M19.569 49.1396H70.8834V38.4854H19.569V49.1396Z" fill="white"/>
<path fill-rule="evenodd" clip-rule="evenodd" d="M66.7731 48.0264H69.385V39.4335H66.7731V48.0264Z" fill="#021C27"/>
<path fill-rule="evenodd" clip-rule="evenodd" d="M78.9901 39.4337H80.7689L80.1648 41.7754H78.8715L78.9901 39.4337Z" fill="#021C27"/>
<path fill-rule="evenodd" clip-rule="evenodd" d="M83.8338 40.7063C85.5714 40.7063 87.2037 41.1447 87.2115 42.8504H84.7312C84.7312 42.2628 84.3883 41.9957 83.8093 41.9957C83.4658 41.9957 83.0015 42.1384 83.0015 42.6769C83.002 43.5704 84.415 43.3917 85.6148 43.7479C86.6926 44.0676 87.4398 44.7107 87.4398 45.7491C87.4398 47.3399 86.1916 48.2201 83.8338 48.2294C81.3613 48.2392 80.431 47.348 80.4232 45.7491H82.9363C82.9363 46.3526 83.3116 46.7119 83.8416 46.7119C84.4763 46.7119 84.7641 46.4709 84.7641 46.0223C84.7641 45.0882 83.0315 45.1124 82.0099 44.7781C81.3151 44.5504 80.6838 44.0354 80.6838 42.9419C80.6838 42.0283 81.3691 40.7063 83.8338 40.7063Z" fill="#021C27"/>
<path fill-rule="evenodd" clip-rule="evenodd" d="M30.3418 45.4222C29.9084 47.1305 28.4913 48.2378 26.7238 48.2383C24.59 48.2383 22.9668 46.6235 22.9689 44.2868C22.9706 41.9531 24.4134 40.3381 26.7238 40.3359C28.6396 40.3343 29.9586 41.4472 30.3546 43.1578L27.9104 43.1581C27.723 42.644 27.3628 42.243 26.7238 42.2425C25.6454 42.2423 25.361 43.3853 25.3614 44.2868C25.3616 45.1889 25.6454 46.3312 26.7238 46.3312C27.3602 46.3312 27.7197 45.9337 27.9078 45.4224L30.3418 45.4222Z" fill="#021C27"/>
<path fill-rule="evenodd" clip-rule="evenodd" d="M12.3227 39.4342H15.4433L16.8017 44.5105L18.16 39.4342H21.2827L22.6472 48.2383H20.0725L19.3924 43.093L17.9853 48.2383H15.6179L14.2111 43.093L13.5306 48.2383H10.9542L12.3227 39.4342Z" fill="#021C27"/>
<path fill-rule="evenodd" clip-rule="evenodd" d="M52.3487 43.8173C52.3487 44.1177 52.3487 48.0283 52.3487 48.0283H49.7665V40.5211H52.3487V41.1076C53.0023 40.5983 53.593 40.3365 54.933 40.3365C56.3884 40.3365 57.5608 41.309 57.5614 42.33V48.0283H54.9609V43.8961C54.962 43.2097 54.3474 42.6501 53.6782 42.6501C52.8175 42.6501 52.3893 43.4118 52.3487 43.8173Z" fill="#021C27"/>
<path fill-rule="evenodd" clip-rule="evenodd" d="M75.3858 41.2651V39.4333H77.9975V48.0262H75.3858V47.6092C75.0429 47.919 74.593 48.2354 73.4673 48.2354C72.2007 48.2354 70.1887 47.5316 70.187 44.5085C70.1854 41.4897 72.1985 40.7062 73.6304 40.7062C74.6704 40.7062 75.1614 41.0652 75.3858 41.2651ZM72.6756 44.5085C72.6756 45.6835 73.2223 46.4343 74.1204 46.4343C74.6587 46.4343 75.1091 46.1996 75.3869 45.7101V43.4559C75.2477 42.9583 74.7645 42.5914 74.1204 42.5913C73.2207 42.5907 72.6756 43.3337 72.6756 44.5085Z" fill="#021C27"/>
<path fill-rule="evenodd" clip-rule="evenodd" d="M41.0973 44.2879C41.0995 41.9542 42.6129 40.3388 45.0365 40.3366C47.4611 40.3345 48.9743 41.9542 48.976 44.2879C48.9782 46.6242 47.4606 48.2388 45.0365 48.2388C42.6153 48.239 41.0953 46.6242 41.0973 44.2879ZM46.533 44.2879C46.5336 43.386 46.2213 42.2435 45.0365 42.2435C43.8521 42.2429 43.5397 43.386 43.54 44.2879C43.5405 45.1896 43.8521 46.3322 45.0365 46.3322C46.2213 46.3322 46.533 45.1896 46.533 44.2879Z" fill="#021C27"/>
<path fill-rule="evenodd" clip-rule="evenodd" d="M31.252 39.4342H35.7392C38.5466 39.4342 40.4599 41.178 40.4599 43.8362C40.4599 46.4941 38.547 48.2383 35.7392 48.2383H31.252V39.4342ZM34.2204 46.157H35.577C36.456 46.157 37.526 45.621 37.526 43.8362C37.526 42.0535 36.456 41.5155 35.577 41.5155H34.2204V46.157Z" fill="#021C27"/>
<path fill-rule="evenodd" clip-rule="evenodd" d="M62.2196 40.3371C64.0729 40.3354 65.6006 41.0171 65.7198 42.5136V48.0267H63.1059V47.2834C62.4712 47.8273 61.8388 48.2354 60.6963 48.2354C59.3657 48.2354 58.2935 47.1834 58.2935 45.9503C58.2935 44.717 59.0528 43.3469 62.0932 43.3476C62.8771 43.3478 63.1053 43.0394 63.1059 42.6721C63.107 42.221 62.587 41.9695 62.1516 41.9695C61.7163 41.9695 61.2224 42.1508 61.2224 42.6223H58.7739C58.7739 41.516 59.5177 40.3397 62.2196 40.3371ZM62.0748 44.5674C61.4719 44.5674 60.914 44.8893 60.914 45.5058C60.914 45.9051 61.1501 46.2498 61.7664 46.2496C62.356 46.2496 62.9851 45.8998 63.1059 45.1748V44.488C62.9066 44.597 62.4556 44.5674 62.0748 44.5674Z" fill="#021C27"/>
</svg>
