<svg width="28" height="29" viewBox="0 0 28 29" fill="none" xmlns="http://www.w3.org/2000/svg">
<path d="M2.96541 22.0913L1.33337 10.667H26.6667L25.0347 22.0913C24.8235 23.5692 23.5578 24.667 22.0648 24.667H5.93526C4.44231 24.667 3.17655 23.5692 2.96541 22.0913Z" fill="#009FE3"/>
<rect y="9.99976" width="28" height="2.66667" rx="1.33333" fill="#009FE3"/>
<path d="M5.22453 4.58963L2.66675 8H6.00008L8.66675 4C7.54467 3.25195 6.03367 3.51077 5.22453 4.58963Z" fill="#009FE3"/>
<path d="M25.3334 8L22.933 4.6962C22.1029 3.55369 20.5297 3.24941 19.3334 4L22.0001 8H25.3334Z" fill="#009FE3"/>
<path d="M11.6001 3.2L8.00008 8H20.0001L16.4001 3.2C15.2001 1.6 12.8001 1.6 11.6001 3.2Z" fill="#009FE3"/>
<circle cx="8.33333" cy="25.3333" r="3.33333" fill="#009FE3"/>
<circle cx="19.3335" cy="25.3336" r="3.33333" fill="#009FE3"/>
</svg>
