<svg width="60" height="60" viewBox="0 0 60 60" fill="none" xmlns="http://www.w3.org/2000/svg">
<circle cx="30" cy="30" r="30" fill="#009FE3"/>
<path d="M15.1961 38.315C13.6841 38.315 12.3786 37.986 11.2796 37.328C10.1876 36.67 9.34408 35.7495 8.74908 34.5665C8.16108 33.3835 7.86708 32.008 7.86708 30.44C7.86708 28.872 8.16108 27.4965 8.74908 26.3135C9.34408 25.1305 10.1876 24.21 11.2796 23.552C12.3786 22.894 13.6841 22.565 15.1961 22.565C16.7081 22.565 18.0101 22.894 19.1021 23.552C20.2011 24.21 21.0446 25.1305 21.6326 26.3135C22.2276 27.4965 22.5251 28.872 22.5251 30.44C22.5251 32.008 22.2276 33.3835 21.6326 34.5665C21.0446 35.7495 20.2011 36.67 19.1021 37.328C18.0101 37.986 16.7081 38.315 15.1961 38.315ZM15.1961 35.627C16.1551 35.641 16.9531 35.4345 17.5901 35.0075C18.2271 34.5805 18.7031 33.975 19.0181 33.191C19.3401 32.407 19.5011 31.49 19.5011 30.44C19.5011 29.39 19.3401 28.48 19.0181 27.71C18.7031 26.94 18.2271 26.3415 17.5901 25.9145C16.9531 25.4875 16.1551 25.267 15.1961 25.253C14.2371 25.239 13.4391 25.4455 12.8021 25.8725C12.1651 26.2995 11.6856 26.905 11.3636 27.689C11.0486 28.473 10.8911 29.39 10.8911 30.44C10.8911 31.49 11.0486 32.4 11.3636 33.17C11.6856 33.94 12.1651 34.5385 12.8021 34.9655C13.4391 35.3925 14.2371 35.613 15.1961 35.627ZM24.2011 38V22.88H34.0711V25.547H27.0571V28.781H32.8111V31.448H27.0571V35.333H34.0711V38H24.2011ZM36.1679 38V22.88H38.7299L43.7279 32.918L48.7259 22.88H51.2879V38H48.6209V28.97L44.2319 38H43.2239L38.8349 28.97V38H36.1679Z" fill="white"/>
</svg>
