<svg width="30" height="26" viewBox="0 0 30 26" fill="none" xmlns="http://www.w3.org/2000/svg">
<mask id="path-1-inside-1_881_1359" fill="white">
<path d="M0.681763 25.909C0.681763 25.3492 1.13196 24.8934 1.69179 24.8865L27.9546 24.5622C28.7049 24.553 29.3181 25.1587 29.3181 25.909H0.681763Z"/>
</mask>
<path d="M0.681763 25.909C0.681763 25.3492 1.13196 24.8934 1.69179 24.8865L27.9546 24.5622C28.7049 24.553 29.3181 25.1587 29.3181 25.909H0.681763Z" fill="#009FE3"/>
<path d="M1.72882 27.8862L27.9916 27.562L27.9176 21.5625L1.65475 21.8867L1.72882 27.8862ZM29.3181 22.909H0.681763V28.909H29.3181V22.909ZM27.9916 27.562C27.0707 27.5734 26.3181 26.83 26.3181 25.909H32.3181C32.3181 23.4873 30.3391 21.5326 27.9176 21.5625L27.9916 27.562ZM1.65475 21.8867C-0.547357 21.9139 -2.31824 23.7068 -2.31824 25.909H3.68176C3.68176 26.9916 2.81128 27.8729 1.72882 27.8862L1.65475 21.8867Z" fill="#009FE3" mask="url(#path-1-inside-1_881_1359)"/>
<path d="M4.09094 3C4.09094 1.34314 5.43409 0 7.09094 0H22.9091C24.566 0 25.9091 1.34315 25.9091 3V25.9091H4.09094V3Z" fill="#009FE3"/>
<path d="M10.2273 18.7273C10.2273 18.175 10.675 17.7273 11.2273 17.7273H14.3182V24.5455H10.2273V18.7273Z" fill="white"/>
<path d="M15.6818 17.7273H18.7727C19.325 17.7273 19.7727 18.175 19.7727 18.7273V24.5455H15.6818V17.7273Z" fill="white"/>
<rect x="7.5" y="3.40894" width="4.09091" height="4.77273" rx="1" fill="white"/>
<rect x="7.5" y="9.54541" width="4.09091" height="4.77273" rx="1" fill="white"/>
<rect x="12.9545" y="3.40894" width="4.09091" height="4.77273" rx="1" fill="white"/>
<rect x="12.9545" y="9.54541" width="4.09091" height="4.77273" rx="1" fill="white"/>
<rect x="18.4091" y="3.40894" width="4.09091" height="4.77273" rx="1" fill="white"/>
<rect x="18.4091" y="9.54541" width="4.09091" height="4.77273" rx="1" fill="white"/>
</svg>
