<svg width="28" height="28" viewBox="0 0 28 28" fill="none" xmlns="http://www.w3.org/2000/svg">
<path d="M24.1495 10.5606L23.4414 8.88115C23.4414 8.88115 25.0846 5.17332 24.9419 5.03066L22.7657 2.90505C22.614 2.7585 18.9036 4.44965 18.9036 4.44965L17.1917 3.75841C17.1917 3.75841 15.6756 0 15.4707 0H12.397C12.1843 0 10.7863 3.76878 10.7863 3.76878L9.07568 4.46262C9.07568 4.46262 5.28615 2.85188 5.1409 2.99064L2.966 5.12145C2.81556 5.27059 4.54692 8.9032 4.54692 8.9032L3.84141 10.5827C3.84141 10.5827 0 12.0598 0 12.2622V15.2736C0 15.4811 3.85049 16.8519 3.85049 16.8519L4.55729 18.5262C4.55729 18.5262 2.91283 22.2366 3.05679 22.3793L5.23427 24.5075C5.38082 24.6514 9.09384 22.9577 9.09384 22.9577L10.807 23.6541C10.807 23.6541 12.3192 27.4099 12.5267 27.4099H15.6004C15.8118 27.4099 17.2137 23.6411 17.2137 23.6411L18.9256 22.9473C18.9256 22.9473 22.71 24.558 22.8565 24.4193L25.0327 22.2885C25.1818 22.1445 23.4492 18.5093 23.4492 18.5093L24.1573 16.8298C24.1573 16.8298 28 15.3475 28 15.1452V12.1364C28.0013 11.9302 24.1495 10.5606 24.1495 10.5606ZM14 18.0956C11.5294 18.0956 9.51403 16.1243 9.51403 13.703C9.51403 11.2843 11.5294 9.31302 14 9.31302C16.4745 9.31302 18.486 11.2843 18.486 13.703C18.486 16.1256 16.4745 18.0956 14 18.0956Z" fill="#009FE3"/>
</svg>
