<svg width="109" height="70" viewBox="0 0 109 70" fill="none" xmlns="http://www.w3.org/2000/svg">
<path d="M6.63818 64.3996C7.45616 64.3996 7.95953 64.2738 8.21121 64.0221C8.43144 63.7704 8.55728 63.5817 8.55728 63.4244C8.55728 63.2671 8.43144 63.0783 8.21121 62.8266C7.95953 62.5749 7.45616 62.4491 6.63818 62.4491H3.05168V64.3682H6.63818V64.3996ZM3.05168 69.9052H0.0314606L0 67.1367V63.0468L0.0314606 60.2783H8.08537C9.43818 60.2783 10.382 60.53 10.8854 61.0019C11.3887 61.4738 11.6404 62.1659 11.6404 63.0468V63.8334C11.6404 64.7143 11.3887 65.4064 10.8854 65.8783C10.382 66.3502 9.43818 66.5704 8.08537 66.5704H3.05168V69.9052Z" fill="#021C27"/>
<path d="M21.928 63.9907C21.928 63.4558 21.8022 63.0783 21.582 62.8266C21.3617 62.5749 20.8269 62.4491 20.0404 62.4491H18.3101C17.5865 62.4491 17.0831 62.6064 16.8314 62.8581C16.5797 63.1098 16.4539 63.4873 16.4539 63.9907V66.1929C16.4539 66.6648 16.5797 67.0423 16.8314 67.294C17.0831 67.5772 17.5865 67.703 18.3101 67.703H20.0404C20.8269 67.703 21.3617 67.5772 21.582 67.3255C21.7707 67.1053 21.928 66.6963 21.9595 66.1929V63.9907H21.928ZM24.2247 69.2131C23.7213 69.685 22.7775 69.9052 21.4561 69.9052H16.9887C15.6359 69.9052 14.6921 69.685 14.1887 69.2131C13.6539 68.7727 13.4022 68.0491 13.4022 67.1367V63.0468C13.4022 62.1345 13.6539 61.4109 14.1887 60.9705C14.6921 60.53 15.6359 60.2783 16.9887 60.2783H21.4561C22.8089 60.2783 23.7528 60.53 24.2247 61.0019C24.728 61.4738 24.9797 62.1659 24.9797 63.0468V67.1367C25.0112 68.0491 24.728 68.7097 24.2247 69.2131Z" fill="#021C27"/>
<path d="M37.5954 69.2131C37.092 69.685 36.1796 69.9052 34.8268 69.9052H30.3594C29.0066 69.9052 28.0628 69.685 27.528 69.2131C26.9931 68.7727 26.7415 68.0491 26.7415 67.1367V63.0468C26.7415 62.1345 26.9931 61.4109 27.528 60.9705C28.0628 60.53 29.0066 60.2783 30.3594 60.2783H34.8268C36.1796 60.2783 37.092 60.53 37.5954 61.0019C38.0987 61.4738 38.3504 62.1659 38.3504 63.0468V63.9907H35.2987C35.2987 63.4558 35.1729 63.0783 34.9527 62.8266C34.701 62.5749 34.1976 62.4491 33.4111 62.4491H31.6808C30.9257 62.4491 30.4538 62.6064 30.1707 62.8581C29.919 63.1098 29.7931 63.4873 29.7931 63.9907V66.1929C29.7931 66.6648 29.919 67.0423 30.1707 67.294C30.4223 67.5772 30.9257 67.703 31.6808 67.703H33.4111C34.1976 67.703 34.7324 67.5772 34.9527 67.3255C35.1729 67.1053 35.2987 66.6963 35.2987 66.1929H38.3504V67.1367C38.3819 68.0491 38.1302 68.7097 37.5954 69.2131Z" fill="#021C27"/>
<path d="M43.1954 69.9052H40.1751L40.1437 67.1367V63.0468L40.1751 60.2783H43.1954V63.9592H48.6695V60.2783H51.7526V69.9052H48.6695V66.1614H43.1954V69.9052Z" fill="#021C27"/>
<path d="M57.4471 66.1612H56.5662C56.5977 66.6646 56.692 67.0421 56.9752 67.3253C57.2269 67.6084 57.7302 67.7343 58.4853 67.7343H65.1235V69.9365H57.1325C55.7797 69.9365 54.8359 69.7163 54.301 69.2444C53.7977 68.8039 53.5145 68.0803 53.5145 67.168V63.0781C53.5145 62.1657 53.7662 61.4422 54.301 61.0017C54.8359 60.5613 55.7797 60.3096 57.1325 60.3096H65.1235V62.5118H58.4538C57.6988 62.5118 57.1954 62.6691 56.9437 62.9208C56.692 63.1725 56.5662 63.5186 56.5347 64.0219H65.1235V66.2242H57.4471" fill="#021C27"/>
<path d="M88.593 62.4491H84.4087V60.2783H95.9862V62.4491H91.6446V69.9052H88.593V62.4491Z" fill="#021C27"/>
<path d="M100.422 65.7841V67.7032H104.009C104.827 67.7032 105.33 67.5774 105.55 67.3572C105.77 67.1055 105.896 66.9167 105.896 66.7594C105.896 66.6021 105.77 66.3819 105.55 66.1617C105.33 65.91 104.795 65.7841 104.009 65.7841H100.422ZM100.422 63.5819H105.424C106.777 63.5819 107.721 63.8336 108.193 64.3055C108.696 64.7774 108.948 65.4695 108.948 66.3504V67.1055C108.948 67.9864 108.696 68.6785 108.193 69.1504C107.69 69.6223 106.746 69.874 105.424 69.874H97.3705L97.339 67.1055V63.0156L97.3705 60.2471H100.422V63.5819Z" fill="#021C27"/>
<path d="M69.8425 64.8405C69.8425 63.645 70.9122 63.7709 70.9122 63.7709H73.9953V65.8158H70.8807C70.8807 65.8158 69.8425 65.8473 69.8425 64.8405ZM80.0987 65.8158H76.9841V63.7709H80.0672C80.0672 63.7709 81.1369 63.645 81.1369 64.8405C81.1369 65.8473 80.0987 65.8158 80.0987 65.8158ZM81.7346 61.7259H77.0155V60.2158H74.0268V61.7259H69.1819C69.1819 61.7259 66.4133 61.8203 66.4133 64.7461C66.4133 67.7034 69.2448 67.7349 69.2448 67.7349H73.9953V70.0001H76.9841V67.7349H81.6402C81.6402 67.7349 84.4717 67.7034 84.4717 64.7461C84.4717 61.8203 81.7346 61.7259 81.7346 61.7259Z" fill="#021C27"/>
<path d="M48.6381 0V4.4674H43.6673V8.93481H38.6651V13.5281H33.6628V28.755C33.6628 28.755 42.5033 36.3684 43.7302 37.501V53.7032H65.438V37.5954C66.6965 36.4943 75.474 28.7864 75.474 28.7864V13.5281H70.4717V8.96627H65.4066V4.4674H60.3729V0H48.6381Z" fill="white"/>
<path d="M51.5953 30.0762H47.3481V50.1166H51.5953V30.0762Z" fill="#C0C6C9"/>
<path d="M56.629 25.9233H52.3818V50.1165H56.629V25.9233Z" fill="#C0C6C9"/>
<path d="M61.6627 30.0762H57.4155V50.1166H61.6627V30.0762Z" fill="#C0C6C9"/>
<path d="M41.528 30.8627L37.2494 27.2762V17.02H41.528V30.8627Z" fill="#021C27"/>
<path d="M46.5616 35.3303L42.3145 31.3663V12.4585H46.5616V35.3303Z" fill="#021C27"/>
<path d="M51.5953 7.99072H47.3481V29.4468H51.5953V7.99072Z" fill="#021C27"/>
<path d="M56.629 3.52344H52.3818V25.0425H56.629V3.52344Z" fill="#021C27"/>
<path d="M67.5144 30.8627L71.7616 27.2762V17.02H67.5144V30.8627Z" fill="#021C27"/>
<path d="M62.4492 35.3303L66.6964 31.3663V12.4585H62.4492V35.3303Z" fill="#021C27"/>
<path d="M61.6627 7.99072H57.4155V29.4468H61.6627V7.99072Z" fill="#021C27"/>
</svg>
