<svg width="28" height="29" viewBox="0 0 28 29" fill="none" xmlns="http://www.w3.org/2000/svg">
<path d="M9.22729 4.18175L27.6364 6.49993V2.78144C27.6364 1.5116 26.4683 0.56326 25.2256 0.824086L9.22729 4.18175Z" fill="#009FE3"/>
<path d="M7.40867 5.26673C6.20718 5.10168 5.13647 6.03535 5.13647 7.24812V28.9091H27.6365V9.78953C27.6365 8.79015 26.8988 7.94416 25.9087 7.80814L7.40867 5.26673Z" fill="#009FE3"/>
<path d="M0.363586 4.18188V28.9092H3.09086V6.46667C3.09086 5.57208 2.49678 4.78629 1.63606 4.54242L0.363586 4.18188Z" fill="#009FE3"/>
<path d="M15.4018 15.9685L14.9733 17.5876H15.8109L15.4018 15.9685Z" fill="#009FE3"/>
<rect x="7.86359" y="10.3635" width="7.5" height="3.86364" rx="1" fill="white"/>
<rect x="16.7273" y="10.3635" width="8.18182" height="3.86364" rx="1" fill="white"/>
<rect x="7.86359" y="15.7727" width="7.5" height="3.86364" rx="1" fill="white"/>
<rect x="7.86359" y="21.1819" width="7.5" height="3.86364" rx="1" fill="white"/>
<rect x="16.7273" y="15.7727" width="8.18182" height="3.86364" rx="1" fill="white"/>
<rect x="16.7273" y="21.1819" width="8.18182" height="3.86364" rx="1" fill="white"/>
</svg>
