<svg width="102" height="16" viewBox="0 0 102 16" fill="none" xmlns="http://www.w3.org/2000/svg">
<path fill-rule="evenodd" clip-rule="evenodd" d="M0.312444 15.4394V12.3942C2.04567 12.9397 3.57934 13.2125 4.91345 13.2125C6.75541 13.2125 7.67655 12.7256 7.67655 11.7525C7.67655 11.3898 7.5425 11.0849 7.27379 10.8381C6.99901 10.5763 6.29525 10.2133 5.16434 9.74828C3.13517 8.91391 1.81199 8.20236 1.19652 7.61382C0.398807 6.83696 0 5.85731 0 4.67344C0 3.14889 0.58115 1.98689 1.74264 1.18837C2.89127 0.396829 4.38697 0.00146484 6.23207 0.00146484C7.24868 0.00146484 8.72008 0.188567 10.6447 0.563277V3.49262C9.21264 2.92058 7.88339 2.63517 6.65528 2.63517C4.9259 2.63517 4.06127 3.11001 4.06127 4.06182C4.06127 4.4176 4.23541 4.70777 4.5842 4.93273C4.87427 5.11477 5.6735 5.4993 6.98018 6.08754C8.86163 6.92312 10.1141 7.64946 10.7382 8.26726C11.4787 9.00007 11.8497 9.94834 11.8497 11.1106C11.8497 12.7813 11.123 14.0557 9.67078 14.9338C8.4942 15.6458 6.96853 16.0004 5.09468 16.0004C3.51221 16.0004 1.91779 15.814 0.312444 15.4394Z" fill="#021C27"/>
<path fill-rule="evenodd" clip-rule="evenodd" d="M14.282 0.268066H18.589V15.6875H14.282V0.268066Z" fill="#021C27"/>
<path fill-rule="evenodd" clip-rule="evenodd" d="M22.5389 15.6875V0.268066H33.5853V3.05698H26.6899V6.53871H32.692V9.08261H26.6899V12.7417H33.763V15.6875H22.5389Z" fill="#021C27"/>
<path fill-rule="evenodd" clip-rule="evenodd" d="M36.5747 15.6875V0.268066H42.1589L46.0385 10.1204L50.0155 0.268066H55.3196V15.6875H51.236V4.77016L46.714 15.844H44.0442L39.6092 4.77016V15.6875H36.5747Z" fill="#021C27"/>
<path fill-rule="evenodd" clip-rule="evenodd" d="M59.2703 15.6875V0.268066H70.3165V3.05698H63.4218V6.53871H69.4236V9.08261H63.4218V12.7417H70.4953V15.6875H59.2703Z" fill="#021C27"/>
<path fill-rule="evenodd" clip-rule="evenodd" d="M73.3293 15.6875V0.268066H78.3211L83.6171 10.5902V0.268066H86.6508V15.6875H81.8007L76.3642 5.22647V15.6875H73.3293Z" fill="#021C27"/>
<path fill-rule="evenodd" clip-rule="evenodd" d="M89.7084 15.438V12.3929C91.4269 12.9384 92.9604 13.2111 94.3102 13.2111C96.1524 13.2111 97.0724 12.7242 97.0724 11.7512C97.0724 11.3884 96.9419 11.0836 96.6822 10.8367C96.406 10.5749 95.6993 10.2119 94.5616 9.74692C92.5385 8.91944 91.214 8.20819 90.5929 7.61246C89.7956 6.84248 89.3975 5.85919 89.3975 4.66155C89.3975 3.14358 89.9772 1.98543 91.1399 1.1869C92.2868 0.395364 93.7842 0 95.6295 0C96.667 0 98.0113 0.164727 99.6601 0.495699L100.041 0.561812V3.49115C98.6087 2.91911 97.2756 2.6337 96.0409 2.6337C94.3181 2.6337 93.4588 3.10854 93.4588 4.06035C93.4588 4.41613 93.6321 4.7063 93.9799 4.93127C94.2563 5.10632 95.0588 5.49106 96.3874 6.08608C98.2545 6.92166 99.5044 7.64799 100.134 8.26579C100.876 8.99861 101.246 9.94688 101.246 11.1092C101.246 12.7798 100.523 14.0542 99.0784 14.9323C97.8949 15.6444 96.3654 15.9989 94.4918 15.9989C92.9077 15.999 91.3125 15.8126 89.7084 15.438Z" fill="#021C27"/>
</svg>
