<svg width="27" height="28" viewBox="0 0 27 28" fill="none" xmlns="http://www.w3.org/2000/svg">
<path d="M10.798 13.9995L11.7436 13.0724L12.6892 13.9995L11.7436 14.9266L10.798 13.9995Z" fill="#009FE3"/>
<path d="M15.5574 12.4446L16.503 11.5175L17.4486 12.4446L16.503 13.3717L15.5574 12.4446Z" fill="#009FE3"/>
<path d="M18.5855 11.3333H17.6008L18.0931 11.8159L18.5855 11.3333Z" fill="#009FE3"/>
<path d="M12.3843 15.5549L13.33 14.6279L14.2757 15.5549L13.33 16.4819L12.3843 15.5549Z" fill="#009FE3"/>
<path d="M15.412 11.3333H14.4274L14.9197 11.8159L15.412 11.3333Z" fill="#009FE3"/>
<path d="M9.21179 12.4443L10.1574 11.5172L11.103 12.4443L10.1574 13.3714L9.21179 12.4443Z" fill="#009FE3"/>
<path d="M11.2542 16.6665H12.2388L11.7465 16.1838L11.2542 16.6665Z" fill="#009FE3"/>
<path d="M9.21143 15.5549L10.1569 14.6277L11.1024 15.5549L10.1569 16.4822L9.21143 15.5549Z" fill="#009FE3"/>
<path d="M12.3848 12.4446L13.3305 11.5176L14.2762 12.4446L13.3305 13.3716L12.3848 12.4446Z" fill="#009FE3"/>
<path d="M12.2388 11.3333H11.2542L11.7465 11.8159L12.2388 11.3333Z" fill="#009FE3"/>
<path d="M21.7586 11.3333H20.7739L21.2662 11.8159L21.7586 11.3333Z" fill="#009FE3"/>
<path d="M21.9038 12.4453L22.8493 11.5181L23.7948 12.4453L22.8493 13.3725L21.9038 12.4453Z" fill="#009FE3"/>
<path d="M9.06556 11.3333H8.08093L8.57325 11.8159L9.06556 11.3333Z" fill="#009FE3"/>
<path d="M20.7739 16.6665H21.7586L21.2662 16.1838L20.7739 16.6665Z" fill="#009FE3"/>
<path d="M18.7303 12.4446L19.6759 11.5174L20.6215 12.4446L19.6759 13.3717L18.7303 12.4446Z" fill="#009FE3"/>
<path d="M20.3171 14.0005L21.2627 13.0734L22.2083 14.0005L21.2627 14.9276L20.3171 14.0005Z" fill="#009FE3"/>
<path d="M7.62512 13.999L8.57073 13.0719L9.51633 13.999L8.57073 14.9261L7.62512 13.999Z" fill="#009FE3"/>
<path d="M14.4274 16.6665H15.412L14.9197 16.1838L14.4274 16.6665Z" fill="#009FE3"/>
<path d="M17.1437 14.0005L18.0893 13.0734L19.0349 14.0005L18.0893 14.9276L17.1437 14.0005Z" fill="#009FE3"/>
<path d="M13.9709 14.0005L14.9166 13.0734L15.8622 14.0005L14.9166 14.9276L13.9709 14.0005Z" fill="#009FE3"/>
<path d="M17.6008 16.6665H18.5855L18.0931 16.1838L17.6008 16.6665Z" fill="#009FE3"/>
<path d="M8.57325 16.1838L8.08093 16.6665H9.06556L8.57325 16.1838Z" fill="#009FE3"/>
<path d="M2.86523 15.5544L3.81081 14.6273L4.75639 15.5544L3.81081 16.4816L2.86523 15.5544Z" fill="#009FE3"/>
<path d="M18.7303 15.5559L19.676 14.6289L20.6217 15.5559L19.676 16.4829L18.7303 15.5559Z" fill="#009FE3"/>
<path d="M6.03845 15.5549L6.98394 14.6277L7.92942 15.5549L6.98394 16.4822L6.03845 15.5549Z" fill="#009FE3"/>
<path d="M24.6664 12.0381V11.3333H23.9474L24.6664 12.0381Z" fill="#009FE3"/>
<path d="M21.9033 15.5559L22.849 14.6289L23.7947 15.5559L22.849 16.4829L21.9033 15.5559Z" fill="#009FE3"/>
<path d="M24.6664 16.6666V15.9617L23.9474 16.6666H24.6664Z" fill="#009FE3"/>
<path d="M23.4939 13.9999L24.4395 14.927L24.6662 14.7047V13.295L24.4395 13.0728L23.4939 13.9999Z" fill="#009FE3"/>
<path d="M3.17231 13.9999L2.22666 13.0728L2 13.295V14.7047L2.22666 14.927L3.17231 13.9999Z" fill="#009FE3"/>
<path d="M5.8921 11.3333H4.90747L5.39979 11.8159L5.8921 11.3333Z" fill="#009FE3"/>
<path d="M2 16.6666H2.71898L2 15.9617V16.6666Z" fill="#009FE3"/>
<path d="M6.03845 12.4438L6.98406 11.5167L7.92966 12.4438L6.98406 13.371L6.03845 12.4438Z" fill="#009FE3"/>
<path d="M4.45178 13.999L5.39739 13.0719L6.34299 13.999L5.39739 14.9261L4.45178 13.999Z" fill="#009FE3"/>
<path d="M4.90747 16.6665H5.8921L5.39979 16.1838L4.90747 16.6665Z" fill="#009FE3"/>
<path d="M15.557 15.5554L16.5027 14.6284L17.4484 15.5554L16.5027 16.4824L15.557 15.5554Z" fill="#009FE3"/>
<path d="M2.8656 12.4438L3.8112 11.5167L4.75681 12.4438L3.8112 13.371L2.8656 12.4438Z" fill="#009FE3"/>
<path d="M2 11.3333V12.0381L2.71898 11.3333H2Z" fill="#009FE3"/>
<path d="M0 11.3332C0 10.965 0.298474 10.6665 0.666661 10.6665C1.03485 10.6665 1.33332 10.965 1.33332 11.3332V16.6665C1.33332 17.0346 1.03485 17.3331 0.666661 17.3331C0.298474 17.3331 0 17.0346 0 16.6665V11.3332Z" fill="#009FE3"/>
<path d="M25.333 11.3332C25.333 10.965 25.6315 10.6665 25.9997 10.6665C26.3679 10.6665 26.6663 10.965 26.6663 11.3332V16.6665C26.6663 17.0346 26.3679 17.3331 25.9997 17.3331C25.6315 17.3331 25.333 17.0346 25.333 16.6665V11.3332Z" fill="#009FE3"/>
<path d="M3.3335 3C3.3335 1.34315 4.67664 0 6.3335 0H6.6668V9.99992H3.3335V3Z" fill="#009FE3"/>
<path d="M3.3335 18H6.6668V27.9999H6.3335C4.67664 27.9999 3.3335 26.6568 3.3335 24.9999V18Z" fill="#009FE3"/>
<path d="M20 0H20.3333C21.9902 0 23.3333 1.34315 23.3333 3V9.99992H20V0Z" fill="#009FE3"/>
<path d="M20 18H23.3333V24.9999C23.3333 26.6568 21.9902 27.9999 20.3333 27.9999H20V18Z" fill="#009FE3"/>
<rect x="7.99976" width="10.6666" height="2.66665" fill="#009FE3"/>
<rect x="7.99976" y="25.3333" width="10.6666" height="2.66665" fill="#009FE3"/>
<rect x="7.99976" y="4.00024" width="4.66663" height="5.99995" fill="#009FE3"/>
<rect x="7.99976" y="18" width="4.66663" height="5.99995" fill="#009FE3"/>
<rect x="13.9999" y="4.00024" width="4.66663" height="5.99995" fill="#009FE3"/>
<rect x="13.9999" y="18" width="4.66663" height="5.99995" fill="#009FE3"/>
</svg>
