<svg width="109" height="36" viewBox="0 0 109 36" fill="none" xmlns="http://www.w3.org/2000/svg">
<path d="M25.4869 3.91113L19.9463 24.2268H16.6958L12.7804 9.45177L8.79114 24.2268H5.57757L0 3.91113H3.21357L7.16589 18.6492L11.1551 3.91113H14.3318L18.321 18.6492L22.3103 3.91113H25.4869Z" fill="#021C27"/>
<path d="M26.9644 3.94802L30.178 3.68945V8.67602L30.1041 10.5229H30.2149C31.6924 9.96884 32.8744 9.71027 34.3519 9.71027C36.9376 9.71027 38.6736 10.8923 38.6736 15.3248V24.1898H35.4601V15.5833C35.4601 12.9238 34.1672 12.5545 32.6528 12.5545C31.7294 12.5545 30.9537 12.7761 30.1041 12.9977V24.1898H26.9644V3.94802Z" fill="#021C27"/>
<path d="M43.1061 4.16992C44.7683 4.16992 45.0269 5.1303 45.0269 6.20149C45.0269 7.27268 44.6944 8.26999 43.1061 8.26999C41.5178 8.26999 41.2223 7.27268 41.2223 6.20149C41.2223 5.1303 41.5178 4.16992 43.1061 4.16992ZM41.5178 9.93218H44.7314V24.227H41.5178V9.93218Z" fill="#021C27"/>
<path d="M47.4278 9.93225H49.6071L50.0504 11.1142H50.272C51.1216 10.3755 52.4513 9.74756 54.1874 9.74756C54.3721 9.74756 54.6306 9.74756 54.8523 9.7845V12.9242C54.2613 12.8503 53.6703 12.7395 53.0423 12.7395C52.1558 12.7395 51.454 12.9611 50.6414 13.3305V24.264H47.4278V9.93225Z" fill="#021C27"/>
<path d="M56.2189 24.2267V3.94802L59.3956 3.68945V24.2267H56.2189Z" fill="#021C27"/>
<path d="M82.1491 9.71045C86.6925 9.71045 88.4285 12.4069 88.4285 17.1349C88.4285 21.6043 86.8033 24.4855 82.0753 24.4855C77.3473 24.4855 75.6851 21.5674 75.6851 17.1349C75.722 12.4069 77.6428 9.71045 82.1491 9.71045ZM85.178 17.1349C85.178 14.4385 84.7348 12.2222 82.1861 12.2222C79.6004 12.2222 78.9725 14.3646 78.9725 17.1349C78.9725 19.7205 79.4896 21.9737 82.0753 21.9737C84.624 21.9737 85.178 19.8313 85.178 17.1349Z" fill="#021C27"/>
<path d="M96.5178 9.71045C101.061 9.71045 102.797 12.4069 102.797 17.1349C102.797 21.6043 101.172 24.4855 96.444 24.4855C91.716 24.4855 90.0538 21.5674 90.0538 17.1349C90.0907 12.4069 91.9745 9.71045 96.5178 9.71045ZM99.5467 17.1349C99.5467 14.4385 99.1035 12.2222 96.5548 12.2222C93.9692 12.2222 93.3043 14.3646 93.3043 17.1349C93.3043 19.7205 93.8214 21.9737 96.407 21.9737C98.9557 21.9737 99.5467 19.8313 99.5467 17.1349Z" fill="#021C27"/>
<path d="M104.903 24.2267V3.94802L108.079 3.68945V24.2267H104.903Z" fill="#021C27"/>
<path d="M62.0181 9.93207H64.4191L64.6777 10.9663C65.638 10.4492 67.411 9.71045 68.9994 9.71045C71.9174 9.71045 74.0229 11.8528 74.0229 16.9133C74.0229 21.9368 71.7697 24.4116 68.039 24.4116C66.6723 24.4116 65.1578 24.1161 65.1578 24.1161V30.654L61.9443 30.9865V9.93207H62.0181ZM65.2317 21.5674C66.1182 21.6043 66.6353 21.6413 67.5588 21.6413C69.5534 21.6413 70.8462 20.607 70.8462 16.4331C70.8462 13.5889 69.6642 12.8132 67.5957 12.8132C66.7831 12.8132 66.0074 12.961 65.2317 13.2195V21.5674Z" fill="#021C27"/>
<path opacity="0.2" d="M77.8644 1.14103C75.4635 -1.62929 67.8913 0.80859 59.3956 6.68166V8.15916C66.857 2.84016 73.4688 0.402277 75.3526 2.58159C77.7166 5.31497 71.8436 14.2169 62.2767 22.4909C52.7099 30.7649 43.0323 35.2344 40.6683 32.501C39.4493 31.0974 40.4467 27.9946 43.0323 24.1901H41.5178C38.3412 28.955 37.1223 32.9443 38.7845 34.865C41.7764 38.3371 52.9685 33.5722 63.7542 24.2639C74.54 14.9557 80.8563 4.61316 77.8644 1.14103Z" fill="#021C27"/>
</svg>
